<svg width="166" height="66" viewBox="0 0 166 66" fill="none" xmlns="http://www.w3.org/2000/svg">
<rect x="0.0429688" y="0.12915" width="165.915" height="65.8455" rx="24" fill="white"/>
<path d="M50.6645 17.5241C49.4702 18.9373 47.5589 20.0524 45.6478 19.893C45.409 17.9821 46.3445 15.9513 47.4395 14.6971C48.6338 13.244 50.7243 12.2088 52.4164 12.1292C52.6154 14.1199 51.8389 16.0708 50.6645 17.5241ZM52.3967 20.2714C49.6295 20.1121 47.2605 21.8439 45.9466 21.8439C44.613 21.8439 42.6021 20.351 40.4124 20.3908C37.5657 20.4306 34.9179 22.0429 33.4646 24.6111C30.4785 29.7473 32.6883 37.352 35.5748 41.5325C36.9883 43.6029 38.6804 45.8723 40.91 45.7926C43.0203 45.713 43.8564 44.4192 46.4046 44.4192C48.9726 44.4192 49.7093 45.7926 51.9389 45.7528C54.2481 45.713 55.7014 43.6827 57.1148 41.6122C58.7271 39.2631 59.3842 36.9736 59.424 36.8542C59.3842 36.8144 54.9649 35.1225 54.925 30.0259C54.8852 25.7658 58.4089 23.7353 58.5681 23.6159C56.5772 20.6695 53.4718 20.351 52.3967 20.2714ZM68.3826 14.4981V45.5341H73.2V34.9234H79.8691C85.9607 34.9234 90.2409 30.7429 90.2409 24.6909C90.2409 18.6392 86.0403 14.4983 80.0283 14.4983L68.3826 14.4981ZM73.2 18.5593H78.7542C82.9349 18.5593 85.3237 20.7889 85.3237 24.7106C85.3237 28.6324 82.9349 30.882 78.7343 30.882H73.2V18.5593ZM99.0398 45.7727C102.066 45.7727 104.873 44.24 106.147 41.8112H106.246V45.5339H110.706V30.0856C110.706 25.6066 107.122 22.7199 101.608 22.7199C96.4915 22.7199 92.7091 25.6464 92.5698 29.6676H96.9097C97.268 27.7565 99.0396 26.5023 101.468 26.5023C104.415 26.5023 106.067 27.876 106.067 30.4043V32.1162L100.055 32.4745C94.461 32.8129 91.4352 35.1024 91.4352 39.084C91.4352 43.1052 94.5605 45.7727 99.0398 45.7727ZM100.334 42.0899C97.7658 42.0899 96.1332 40.8558 96.1332 38.9644C96.1332 37.0137 97.7059 35.8789 100.712 35.6997L106.067 35.3613V37.113C106.067 40.0195 103.599 42.0899 100.334 42.0899M116.658 53.9747C121.356 53.9747 123.566 52.1832 125.497 46.7483L133.958 23.0185H129.06L123.387 41.3532H123.287L117.614 23.0185H112.577L120.739 45.6135L120.301 46.9872C119.564 49.3163 118.37 50.2122 116.24 50.2122C115.862 50.2122 115.125 50.1724 114.826 50.1326V53.8553C115.105 53.9349 116.299 53.9747 116.658 53.9747" fill="#2D2D2D"/>
</svg>
