<svg width="32" height="33" viewBox="0 0 32 33" fill="none" xmlns="http://www.w3.org/2000/svg">
<g clip-path="url(#clip0_6781_2327)">
<path d="M29.1562 0.974609C27.6976 0.974609 26.5089 2.09461 26.371 3.5178L20.1613 5.05473C19.1798 2.66492 16.8329 0.974609 14.0938 0.974609C11.5351 0.974609 9.33725 2.46142 8.25544 4.60342L5.5885 3.73523C5.56012 2.20873 4.31444 0.974609 2.78125 0.974609C1.23038 0.974609 0 2.23623 0 3.78711C0 5.33798 1.23038 6.59961 2.78125 6.59961C3.67975 6.59961 4.472 6.16842 4.98719 5.51061L7.6485 6.37692C7.58056 6.75492 7.53125 7.1398 7.53125 7.53711C7.53125 9.01005 8.0295 10.3591 8.8565 11.4487L5.92369 14.3815C5.55706 14.206 5.15169 14.0996 4.71875 14.0996C3.16788 14.0996 1.90625 15.3612 1.90625 16.9121C1.90625 18.463 3.16788 19.7246 4.71875 19.7246C6.26962 19.7246 7.53125 18.463 7.53125 16.9121C7.53125 16.4792 7.42481 16.0738 7.24937 15.7072L10.104 12.7065C10.3289 12.8812 10.5651 13.0423 10.8125 13.1866V10.8763C9.94662 10.0253 9.40625 8.84417 9.40625 7.53711C9.40625 4.95255 11.5092 2.84961 14.0938 2.84961C16.6783 2.84961 18.7812 4.95255 18.7812 7.53711C18.7812 8.84417 18.2409 10.0253 17.375 10.8763V12.5414C17.7648 12.3558 18.1998 12.2567 18.6547 12.2389C18.9575 11.945 19.2311 11.6215 19.4737 11.275L22.5657 12.8214C22.5518 12.9344 22.5312 13.0454 22.5312 13.1622C22.5312 14.713 23.7929 15.9747 25.3438 15.9747C26.8946 15.9747 28.1562 14.713 28.1562 13.1622C28.1562 11.6113 26.8946 10.3497 25.3438 10.3497C24.5874 10.3497 23.9029 10.6532 23.397 11.1405L20.2911 9.58711C20.5082 8.93855 20.6562 8.25842 20.6562 7.53711C20.6562 7.31186 20.6121 7.09892 20.5898 6.87942L26.814 5.3388C27.3182 6.09742 28.1789 6.59961 29.1562 6.59961C30.7071 6.59961 32 5.33798 32 3.78711C32 2.23623 30.7071 0.974609 29.1562 0.974609Z" fill="#F85C3A"/>
<path d="M28.1562 17.8496C27.3875 17.8496 26.75 18.487 26.75 19.2559C26.75 20.0469 26.75 19.8645 26.75 20.6621C26.75 21.1799 26.3302 21.5996 25.8125 21.5996C25.2947 21.5996 24.875 21.1799 24.875 20.6621C24.875 19.2305 24.875 18.8494 24.875 17.3809C24.875 16.612 24.2374 15.9746 23.4687 15.9746C22.7 15.9746 22.0625 16.612 22.0625 17.3809C22.0625 18.5057 22.0625 19.0922 22.0625 20.6621C22.0625 21.1799 21.6427 21.5996 21.125 21.5996C20.6072 21.5996 20.1875 21.1799 20.1875 20.6621C20.1875 20.447 20.1875 18.848 20.1875 15.5059C20.1875 14.7292 19.5578 14.0996 18.7812 14.0996C18.0046 14.0996 17.375 14.7292 17.375 15.5059C17.375 17.2772 17.375 18.2017 17.375 20.6621C17.375 21.1799 16.9552 21.5996 16.4375 21.5996C15.9197 21.5996 15.5 21.1799 15.5 20.6621C15.5 20.2388 15.5 14.8709 15.5 8.00586C15.5 7.22917 14.8703 6.59961 14.0937 6.59961C13.3171 6.59961 12.6875 7.22917 12.6875 8.00586C12.6875 15.8841 12.6875 13.279 12.6875 18.3371L9.53746 20.8495C8.50621 21.6745 8.1874 23.1371 8.76865 24.3184L12.275 31.4183C12.7438 32.3746 13.7187 32.9746 14.7875 32.9746C17.345 32.9746 16.1191 32.9746 25.3813 32.9746C26.5403 32.9746 27.6805 32.271 28.0813 30.9684C28.7562 28.6808 29.5625 24.9558 29.5625 20.6621V19.2559C29.5625 18.487 28.9249 17.8496 28.1562 17.8496Z" fill="#F85C3A"/>
</g>
<defs>
<clipPath id="clip0_6781_2327">
<rect width="32" height="32" fill="white" transform="translate(0 0.974609)"/>
</clipPath>
</defs>
</svg>
