<svg width="32" height="33" viewBox="0 0 32 33" fill="none" xmlns="http://www.w3.org/2000/svg">
<g clip-path="url(#clip0_6776_2092)">
<path d="M8.13989 9.61633L5.36754 9.83052C4.5961 9.89014 3.90905 10.2945 3.48243 10.9398L0.285138 15.7755C-0.0384216 16.2648 -0.0898587 16.8773 0.147452 17.4138C0.384825 17.9503 0.872634 18.3241 1.45232 18.414L3.99073 18.8071C4.58454 15.6558 6.00603 12.5124 8.13989 9.61633Z" fill="#F85C3A"/>
<path d="M14.168 28.9839L14.5612 31.5223C14.651 32.102 15.0248 32.5898 15.5613 32.8271C15.7845 32.9258 16.0207 32.9746 16.2558 32.9746C16.5859 32.9746 16.9138 32.8784 17.1996 32.6894L22.0355 29.4922C22.6808 29.0655 23.0851 28.3784 23.1446 27.6071L23.3588 24.8347C20.4627 26.9686 17.3193 28.3901 14.168 28.9839Z" fill="#F85C3A"/>
<path d="M13.2126 27.2244C13.3008 27.2244 13.3894 27.2171 13.4778 27.2024C14.7981 26.9816 16.0705 26.6097 17.2844 26.123L6.85137 15.6899C6.36462 16.9037 5.99275 18.1762 5.772 19.4965C5.685 20.017 5.85956 20.5472 6.23262 20.9203L12.0541 26.7417C12.3638 27.0514 12.7819 27.2244 13.2126 27.2244Z" fill="#F85C3A"/>
<path d="M29.4461 15.1622C31.9991 10.2263 32.0937 5.01039 31.9602 2.56416C31.9146 1.72598 31.2463 1.05773 30.4081 1.01205C30.0098 0.990297 29.5377 0.974609 29.0056 0.974609C26.2703 0.974609 21.9421 1.38892 17.81 3.52621C14.5262 5.22476 10.2202 8.9648 7.67969 13.8799C7.70969 13.9033 7.739 13.9282 7.76662 13.9558L19.0165 25.2057C19.0442 25.2334 19.069 25.2626 19.0924 25.2926C24.0075 22.7521 27.7475 18.446 29.4461 15.1622ZM18.6037 7.73956C20.4312 5.91201 23.405 5.91182 25.2327 7.73956C26.118 8.62486 26.6056 9.80204 26.6056 11.0541C26.6056 12.3061 26.118 13.4833 25.2327 14.3686C24.319 15.2823 23.1184 15.7392 21.9182 15.7394C20.7176 15.7394 19.5176 15.2826 18.6037 14.3686C17.7183 13.4833 17.2307 12.3061 17.2307 11.0541C17.2307 9.80204 17.7183 8.62486 18.6037 7.73956Z" fill="#F85C3A"/>
<path d="M19.9331 13.0428C21.0297 14.1394 22.8141 14.1394 23.9106 13.0428C24.4418 12.5115 24.7344 11.8053 24.7344 11.054C24.7344 10.3028 24.4418 9.59655 23.9106 9.06536C23.3624 8.51705 22.6421 8.24292 21.9219 8.24292C21.2017 8.24292 20.4814 8.51705 19.9332 9.06536C19.402 9.59655 19.1094 10.3028 19.1094 11.054C19.1094 11.8053 19.4019 12.5116 19.9331 13.0428Z" fill="#F85C3A"/>
<path d="M0.957062 27.3455C1.197 27.3455 1.43694 27.254 1.61994 27.0709L4.68075 24.0101C5.04688 23.6439 5.04688 23.0504 4.68075 22.6843C4.31469 22.3181 3.72106 22.3181 3.35494 22.6843L0.294125 25.7451C-0.072 26.1112 -0.072 26.7048 0.294125 27.0709C0.477187 27.2539 0.717125 27.3455 0.957062 27.3455Z" fill="#F85C3A"/>
<path d="M7.48509 25.4893C7.11903 25.1232 6.52541 25.1232 6.15928 25.4893L0.274594 31.374C-0.0915312 31.7401 -0.0915312 32.3337 0.274594 32.6998C0.457656 32.8829 0.697594 32.9744 0.937531 32.9744C1.17747 32.9744 1.41741 32.8829 1.60041 32.6998L7.48503 26.8151C7.85122 26.449 7.85122 25.8554 7.48509 25.4893Z" fill="#F85C3A"/>
<path d="M8.96425 28.2944L5.9035 31.3552C5.53738 31.7213 5.53738 32.3149 5.9035 32.681C6.08656 32.8641 6.3265 32.9556 6.56638 32.9556C6.80625 32.9556 7.04625 32.8641 7.22925 32.681L10.2901 29.6202C10.6562 29.2541 10.6562 28.6605 10.2901 28.2944C9.924 27.9282 9.33038 27.9282 8.96425 28.2944Z" fill="#F85C3A"/>
</g>
<defs>
<clipPath id="clip0_6776_2092">
<rect width="32" height="32" fill="white" transform="translate(0 0.974609)"/>
</clipPath>
</defs>
</svg>
