<svg width="32" height="33" viewBox="0 0 32 33" fill="none" xmlns="http://www.w3.org/2000/svg">
<g clip-path="url(#clip0_6781_2335)">
<path fill-rule="evenodd" clip-rule="evenodd" d="M16.0656 28.8505C15.6907 28.8505 15.3345 28.8317 14.9783 28.7942C15.4282 27.6319 15.8219 25.9448 15.5782 25.0824C15.5782 25.0637 15.5782 25.0637 15.5782 25.0637C15.447 24.6138 15.3907 24.2763 15.3533 23.9764C15.222 23.0578 15.0346 22.4017 13.5723 22.2142C13.2912 22.1393 13.2537 22.4205 13.3099 21.4269C13.3286 21.052 13.3474 20.6021 13.2912 20.1147C12.9912 17.8651 10.1605 14.547 8.24839 17.2277C7.94845 17.6401 5.84886 17.9588 4.23667 18.0526C3.61804 11.2664 8.79203 5.38003 15.5782 5.11759C15.1283 5.88619 14.6784 6.65479 14.6221 6.71102C13.8723 7.01097 13.3661 7.14219 12.9912 7.25467C11.604 7.64834 11.5665 7.94828 10.9854 9.4105C10.4792 10.6852 10.6292 10.8165 11.3415 11.7163C11.4728 11.885 11.5852 12.2037 12.0164 12.3537C12.86 12.6536 13.9285 11.7538 14.3597 11.6226C14.4159 11.6038 14.4534 11.5851 14.4909 11.5663C15.4095 11.0977 16.3468 10.7602 16.5905 10.8165C16.5905 10.8165 18.0715 11.3226 18.7276 12.4099C18.9151 12.7473 19.1588 12.6724 19.4025 13.4222C19.9086 15.0906 21.8582 16.5529 23.7141 14.697C23.9391 14.472 23.9016 14.3033 24.0141 14.0221C24.0328 14.0596 24.6702 14.3783 24.7452 14.9032C24.8576 15.6155 25.9262 16.7216 27.0322 15.6343C27.0322 15.6155 27.3697 15.2406 27.7446 14.8282C28.5319 19.1773 26.8448 23.4703 23.5641 26.1697C23.4892 25.2137 23.4329 24.1639 23.4329 23.7889C23.4329 22.8141 24.5015 20.8458 25.1763 19.8335L25.2326 19.721C25.795 18.4087 25.3638 17.4152 24.089 17.2277L20.6772 16.4591C19.9649 16.1217 19.4774 16.2342 19.1775 16.4029C18.7838 16.6091 18.5589 16.984 18.4839 17.3027C18.2214 17.7339 18.2402 18.1275 18.3152 18.39C18.2214 18.4275 18.109 18.465 17.959 18.5025C17.1342 18.7837 16.778 19.2711 16.628 19.646C16.1219 20.8083 17.0217 22.4017 17.5841 23.5077C18.0902 24.4638 19.5337 25.7198 20.1336 26.226L20.1711 28.1006C18.8963 28.588 17.5091 28.8505 16.0656 28.8505ZM28.3632 11.2289C25.72 11.2289 24.3327 8.30446 25.7387 6.24237C23.058 3.84283 19.6462 2.53059 16.0656 2.53059C5.94259 2.53059 -1.03105 12.6161 2.47452 21.9893C5.41769 21.3144 7.49854 24.7263 5.71763 27.0508C8.37961 29.8253 12.0914 31.4 16.0656 31.4C24.0141 31.4 30.5003 24.9325 30.5003 16.9653C30.5003 14.9032 30.0691 12.8973 29.263 11.0977C28.9818 11.1727 28.6819 11.2289 28.3632 11.2289ZM26.8635 5.23006C29.0006 4.06779 31.5501 5.71747 31.5501 8.04201C31.5501 8.94184 31.1752 9.74793 30.5753 10.3291C31.4938 12.3724 32 14.6407 32 16.9653C32 25.7573 24.8389 32.8997 16.0656 32.8997C11.6602 32.8997 7.51728 31.175 4.53661 27.9881C2.47452 28.9254 0 27.5195 0 25.1012C0 24.1264 0.431166 23.2453 1.12478 22.6642C-2.88694 12.2599 4.83656 1.03088 16.0656 1.03088C20.0773 1.03088 23.8828 2.53059 26.8635 5.23006ZM17.2654 5.15508C21.9145 5.64248 25.7762 8.79187 27.2759 13.066C26.8635 13.5347 26.2074 14.3033 26.1699 14.3408C25.9262 13.441 25.1388 12.9161 24.8764 12.7473C24.314 12.2599 23.8078 12.3349 23.5454 12.4099C22.908 12.6161 22.6268 13.291 22.4956 13.7222C22.2144 13.9659 21.9707 14.0408 21.7458 13.9846C21.3146 13.8721 20.9209 13.2722 20.8459 13.0098C20.696 12.2599 20.1898 11.7163 19.9461 11.5101C19.0275 10.0666 17.3029 9.42924 17.0592 9.35426C16.1968 9.03557 14.5472 9.80417 13.8161 10.1791L12.56 10.8352L12.2039 10.4041L12.8412 8.8856C12.8975 8.82936 13.1412 8.77312 13.3849 8.69814C13.7786 8.58566 14.3597 8.41694 15.2033 8.07951C15.597 7.94828 16.628 6.2986 17.2654 5.15508ZM22.1394 27.1633C21.9895 27.257 21.8207 27.3507 21.6708 27.4257L21.6333 25.8135C21.6145 25.5886 21.5208 25.4011 21.3521 25.2699C20.6022 24.67 19.29 23.5077 18.9338 22.8329C18.5964 22.158 17.7903 20.7145 18.0152 20.2271C18.2214 19.721 20.4335 19.8335 19.8149 18.1275C19.7399 17.9401 19.8711 18.0713 19.9274 17.7526L20.2648 17.9026L23.9766 18.7274C23.9766 18.7837 23.9578 18.8961 23.8828 19.0649C23.5454 19.571 21.9332 22.1393 21.9332 23.7889C21.9332 24.3138 22.0457 26.0572 22.1394 27.1633ZM13.4599 28.5693C8.9795 27.5757 5.45518 24.0326 4.46163 19.5523C6.33626 19.421 8.62332 19.1211 9.48565 18.0901C9.76684 17.6776 9.93556 17.7151 10.0293 17.7339C10.7229 17.9026 11.6977 19.4398 11.8102 20.3209C11.9602 21.4644 11.2103 23.4703 13.4036 23.714C13.6473 23.7327 13.7598 23.7702 13.8161 23.7889C13.8723 23.9951 13.9098 24.67 14.1535 25.4949C14.3222 26.1135 13.8348 27.7069 13.4599 28.5693Z" fill="#F85C3A"/>
</g>
<defs>
<clipPath id="clip0_6781_2335">
<rect width="32" height="32" fill="white" transform="translate(0 0.974609)"/>
</clipPath>
</defs>
</svg>
