<svg width="32" height="33" viewBox="0 0 32 33" fill="none" xmlns="http://www.w3.org/2000/svg">
<path d="M18.9861 8.94946C14.5611 8.94946 10.9609 12.5495 10.9609 16.9746C10.9609 21.3997 14.5611 24.9997 18.9861 24.9997C23.4112 24.9997 27.0112 21.3997 27.0112 16.9746C27.0112 12.5495 23.4112 8.94946 18.9861 8.94946ZM22.7704 17.9121H18.0486V11.3314H19.9236V16.0371H22.7704V17.9121Z" fill="#F85C3A"/>
<path d="M19.0234 3.96221C16.1684 3.95452 13.5273 4.86689 11.3784 6.41858H4.28275C3.16406 6.41858 2.25725 7.32546 2.25725 8.44408C2.25725 9.56277 3.16412 10.4696 4.28275 10.4696H7.71556C7.0615 11.6006 6.57331 12.8393 6.28288 14.1523H2.0255C0.906875 14.1524 0 15.0592 0 16.1779C0 17.2966 0.906875 18.2034 2.0255 18.2034H6.03325C6.15425 19.4952 6.46413 20.732 6.935 21.8861H5.48825C4.36956 21.8861 3.46275 22.793 3.46275 23.9116C3.46275 25.0303 4.36962 25.9371 5.48825 25.9371H9.55412C11.9249 28.4316 15.2745 29.987 18.9876 29.987C26.1741 29.987 32 24.1612 32 16.9746C32 9.78508 26.2129 3.98158 19.0234 3.96221ZM18.9876 26.8747C13.5286 26.8747 9.08744 22.4335 9.08744 16.9746C9.08744 11.5156 13.5286 7.07446 18.9876 7.07446C24.4465 7.07446 28.8877 11.5156 28.8877 16.9746C28.8877 22.4335 24.4465 26.8747 18.9876 26.8747Z" fill="#F85C3A"/>
</svg>
