<svg width="32" height="33" viewBox="0 0 32 33" fill="none" xmlns="http://www.w3.org/2000/svg">
<g clip-path="url(#clip0_6781_2324)">
<path d="M25.3346 12.2066V10.3079C25.3346 5.1533 21.156 0.974609 16.0013 0.974609C10.8466 0.974609 6.66797 5.1533 6.66797 10.3079V12.2066C4.24134 13.2657 2.67147 15.6603 2.66797 18.3079V26.3079C2.67234 29.988 5.65453 32.9702 9.33459 32.9746H22.6679C26.348 32.9702 29.3302 29.988 29.3346 26.3079V18.3079C29.3312 15.6603 27.7612 13.2657 25.3346 12.2066ZM17.3346 23.6413C17.3346 24.3777 16.7377 24.9746 16.0013 24.9746C15.2649 24.9746 14.668 24.3777 14.668 23.6413V20.9746C14.668 20.2382 15.2649 19.6413 16.0013 19.6413C16.7377 19.6413 17.3346 20.2382 17.3346 20.9746V23.6413ZM22.668 11.6413H9.33459V10.308C9.33459 6.62611 12.3193 3.6413 16.0013 3.6413C19.6832 3.6413 22.668 6.62605 22.668 10.308V11.6413Z" fill="#F85C3A"/>
</g>
<defs>
<clipPath id="clip0_6781_2324">
<rect width="32" height="32" fill="white" transform="translate(0 0.974609)"/>
</clipPath>
</defs>
</svg>
