<svg width="132" height="44" viewBox="0 0 132 44" fill="none" xmlns="http://www.w3.org/2000/svg">
<path d="M50.4628 10.3837H54.9492C54.9413 11.7134 54.5364 12.8108 53.7345 13.6758C52.9326 14.5329 51.9021 14.9614 50.6431 14.9614C49.4004 14.9614 48.362 14.5489 47.5277 13.7239C46.7019 12.8908 46.2891 11.8455 46.2891 10.588C46.2891 9.32244 46.698 8.27314 47.5158 7.4401C48.3336 6.60707 49.364 6.19055 50.6072 6.19055C51.6576 6.19055 52.5755 6.49095 53.3614 7.09169C54.1474 7.68438 54.6365 8.45334 54.8287 9.39851H52.9525C52.832 9.09413 52.6597 8.83384 52.4351 8.61757C52.2109 8.39329 51.942 8.22105 51.6292 8.1009C51.3249 7.98075 50.9962 7.9207 50.6431 7.9207C49.8975 7.9207 49.2918 8.16901 48.8271 8.66563C48.362 9.16224 48.1294 9.80304 48.1294 10.588C48.1294 11.1006 48.2335 11.5572 48.4422 11.9577C48.6503 12.3582 48.9432 12.6706 49.3202 12.8948C49.7047 13.1191 50.146 13.2312 50.6431 13.2312C51.0041 13.2312 51.3448 13.1712 51.6656 13.051C51.9863 12.9309 52.2587 12.7627 52.4834 12.5464C52.716 12.3221 52.8843 12.0698 52.9884 11.7895H50.4628V10.3837Z" fill="white"/>
<path d="M56.1875 14.7811V5.9502H57.9436V14.7811H56.1875Z" fill="white"/>
<path d="M62.7213 14.9614C62.0559 14.9614 61.4542 14.8132 60.9173 14.5168C60.3799 14.2205 59.9591 13.812 59.6542 13.2913C59.3574 12.7627 59.209 12.1779 59.209 11.5371C59.209 10.5519 59.5417 9.7349 60.2076 9.0861C60.873 8.43729 61.7107 8.11292 62.7213 8.11292C63.7238 8.11292 64.5576 8.43729 65.223 9.0861C65.8884 9.7349 66.2216 10.5519 66.2216 11.5371C66.2216 12.5144 65.8844 13.3314 65.211 13.9882C64.5456 14.6369 63.7154 14.9614 62.7213 14.9614ZM62.7213 13.3154C63.2263 13.3154 63.6392 13.1511 63.9599 12.8227C64.2807 12.4863 64.441 12.0578 64.441 11.5371C64.441 11.0165 64.2807 10.592 63.9599 10.2636C63.6392 9.92714 63.2223 9.75893 62.7093 9.75893C62.2043 9.75893 61.7909 9.92714 61.4701 10.2636C61.1494 10.592 60.989 11.0165 60.989 11.5371C60.989 11.7935 61.0294 12.0338 61.1096 12.258C61.1977 12.4823 61.3182 12.6705 61.4701 12.8227C61.6226 12.9749 61.8033 13.0951 62.0115 13.1832C62.2282 13.2713 62.4648 13.3154 62.7213 13.3154Z" fill="white"/>
<path d="M71.0245 8.11288C72.0106 8.11288 72.8249 8.43726 73.4664 9.08607C74.1159 9.73487 74.4406 10.5519 74.4406 11.5371C74.4406 12.5223 74.1159 13.3393 73.4664 13.9882C72.8249 14.6369 72.0106 14.9613 71.0245 14.9613C70.2465 14.9613 69.5692 14.721 68.9919 14.2404L68.7872 14.7811H67.4883V5.9502H69.2444V8.64154C69.7654 8.2891 70.3591 8.11288 71.0245 8.11288ZM69.6175 12.7987C69.9541 13.1351 70.375 13.3033 70.88 13.3033C71.3935 13.3033 71.8144 13.1351 72.1431 12.7987C72.4798 12.4622 72.6481 12.0417 72.6481 11.5371C72.6481 11.2007 72.5719 10.8963 72.42 10.624C72.2756 10.3516 72.0669 10.1394 71.7945 9.98721C71.5215 9.83502 71.2172 9.7589 70.88 9.7589C70.5513 9.7589 70.2505 9.83502 69.9781 9.98721C69.7056 10.1394 69.4929 10.3516 69.3405 10.624C69.1881 10.8963 69.1119 11.2007 69.1119 11.5371C69.1119 12.0417 69.2803 12.4622 69.6175 12.7987Z" fill="white"/>
<path d="M81.0025 8.28112H82.3139V14.7691H80.9303L80.7863 14.1924C80.1926 14.7051 79.4909 14.9614 78.681 14.9614C77.7029 14.9614 76.889 14.6369 76.2396 13.9882C75.5981 13.3314 75.2773 12.5103 75.2773 11.5251C75.2773 10.5479 75.5981 9.7349 76.2396 9.0861C76.889 8.43729 77.7029 8.11292 78.681 8.11292C79.5073 8.11292 80.2166 8.37724 80.8102 8.9059L81.0025 8.28112ZM77.5505 12.7987C77.8871 13.1351 78.3085 13.3033 78.8135 13.3033C79.3265 13.3033 79.7519 13.1351 80.0886 12.7987C80.4252 12.4623 80.5936 12.0377 80.5936 11.5251C80.5936 11.0125 80.4252 10.588 80.0886 10.2516C79.7519 9.91515 79.3305 9.74694 78.8255 9.74694C78.4888 9.74694 78.184 9.82704 77.9115 9.98724C77.6466 10.1394 77.4384 10.3517 77.286 10.624C77.1336 10.8883 77.0574 11.1887 77.0574 11.5251C77.0574 12.0377 77.2217 12.4623 77.5505 12.7987Z" fill="white"/>
<path d="M84.002 14.7811V5.9502H85.7581V14.7811H84.002Z" fill="white"/>
<path d="M94.303 14.9614C93.4931 14.9614 92.755 14.7731 92.0896 14.3967C91.4242 14.0122 90.9028 13.4876 90.5262 12.8227C90.1492 12.1499 89.9609 11.405 89.9609 10.588C89.9609 9.33846 90.3738 8.29314 91.1996 7.45214C92.0333 6.6111 93.0678 6.19055 94.303 6.19055C95.329 6.19055 96.215 6.49896 96.9611 7.11573C97.7067 7.73244 98.1798 8.54145 98.38 9.54269H96.5522C96.4396 9.21428 96.2753 8.92995 96.0586 8.68966C95.8425 8.44135 95.582 8.25309 95.2772 8.12493C94.9803 7.98876 94.6556 7.9207 94.303 7.9207C93.5893 7.9207 92.9916 8.17702 92.5105 8.68966C92.0373 9.19428 91.8007 9.82707 91.8007 10.588C91.8007 11.3409 92.0373 11.9697 92.5105 12.4743C92.9916 12.979 93.5893 13.2312 94.303 13.2312C94.8558 13.2312 95.333 13.0751 95.7339 12.7627C96.1348 12.4503 96.4117 12.0258 96.5641 11.4891H98.4045C98.2117 12.5304 97.7386 13.3714 96.985 14.0122C96.2394 14.645 95.3454 14.9614 94.303 14.9614Z" fill="white"/>
<path d="M99.6016 14.7811V5.9502H101.358V14.7811H99.6016Z" fill="white"/>
<path d="M108.346 8.28112H109.658V14.7691H108.274L108.13 14.1924C107.536 14.7051 106.835 14.9614 106.025 14.9614C105.047 14.9614 104.233 14.6369 103.583 13.9882C102.942 13.3314 102.621 12.5103 102.621 11.5251C102.621 10.5479 102.942 9.7349 103.583 9.0861C104.233 8.43729 105.047 8.11292 106.025 8.11292C106.851 8.11292 107.561 8.37724 108.154 8.9059L108.346 8.28112ZM104.894 12.7987C105.231 13.1351 105.652 13.3033 106.157 13.3033C106.67 13.3033 107.096 13.1351 107.432 12.7987C107.769 12.4623 107.937 12.0377 107.937 11.5251C107.937 11.0125 107.769 10.588 107.432 10.2516C107.096 9.91515 106.675 9.74694 106.169 9.74694C105.833 9.74694 105.528 9.82704 105.255 9.98724C104.991 10.1394 104.782 10.3517 104.63 10.624C104.477 10.8883 104.401 11.1887 104.401 11.5251C104.401 12.0377 104.565 12.4623 104.894 12.7987Z" fill="white"/>
<path d="M114.667 8.25708H115.245V9.91514H114.487C113.99 9.91514 113.633 10.0313 113.417 10.2635C113.208 10.4958 113.104 10.8763 113.104 11.4049V14.7811H111.348V8.2931H112.478L112.791 9.08608C113.232 8.5334 113.857 8.25708 114.667 8.25708Z" fill="white"/>
<path d="M116.244 7.4281V5.79407H118V7.4281H116.244ZM116.244 14.7811V8.29312H118V14.7811H116.244Z" fill="white"/>
<path d="M122.863 13.2192H123.657V14.7811H122.418C121.945 14.7811 121.532 14.689 121.179 14.5048C120.834 14.3205 120.57 14.0562 120.385 13.7118C120.201 13.3593 120.109 12.9428 120.109 12.4622V9.69885H118.93V9.32636L121.504 6.599H121.828V8.29308H123.621V9.69885H121.865V12.234C121.865 12.5464 121.949 12.7906 122.117 12.9669C122.294 13.1351 122.542 13.2192 122.863 13.2192Z" fill="white"/>
<path d="M129.342 8.29309H131.219L128.38 14.697C127.979 15.5941 127.57 16.2229 127.153 16.5833C126.736 16.9438 126.171 17.124 125.457 17.124H124.735V15.5381H125.349C125.766 15.5381 126.062 15.4619 126.239 15.3098C126.415 15.1576 126.608 14.8332 126.816 14.3366L126.84 14.2885L124.086 8.29309H125.998L127.73 12.282L129.342 8.29309Z" fill="white"/>
<path d="M54.8253 37.8816C52.2499 37.8816 50.1202 37.0403 48.4363 35.3582C46.7693 33.6761 45.9355 31.5408 45.9355 28.9517C45.9355 26.3622 46.7693 24.2268 48.4363 22.5447C50.1202 20.8627 52.2499 20.0216 54.8253 20.0216C56.1462 20.0216 57.3679 20.2772 58.4905 20.7885C59.6296 21.2832 60.5873 21.9925 61.3628 22.9159C62.1557 23.8393 62.7085 24.9194 63.0223 26.1562H60.8184C60.3557 24.903 59.5967 23.9219 58.5398 23.2124C57.4834 22.5034 56.2453 22.1487 54.8253 22.1487C52.8774 22.1487 51.2762 22.792 50.0216 24.0786C48.7834 25.3482 48.1643 26.9806 48.1643 28.9761C48.1643 30.9552 48.7834 32.5796 50.0216 33.8492C51.2762 35.1189 52.8774 35.7542 54.8253 35.7542C56.2782 35.7542 57.5412 35.383 58.6145 34.6408C59.6873 33.8821 60.4469 32.8353 60.8926 31.4995H63.1214C62.6259 33.4617 61.6273 35.0204 60.1246 36.1746C58.6389 37.3124 56.8728 37.8816 54.8253 37.8816Z" fill="#F85C3A"/>
<path d="M78.048 37.6095L76.3148 33.4538H67.9942L66.2854 37.6095H63.9824L71.0648 20.2938H73.0953L80.4008 37.6095H78.048ZM72.1296 23.2871L68.8116 31.4747H75.4974L72.1296 23.2871Z" fill="#F85C3A"/>
<path d="M93.2837 37.6095L89.3217 30.8314H85.3597V37.6095H83.2051V20.2938H89.7674C91.4021 20.2938 92.7473 20.7968 93.8042 21.8025C94.877 22.7921 95.4134 24.0538 95.4134 25.5876C95.4134 26.7911 95.0667 27.8468 94.3735 28.7538C93.6802 29.6443 92.7558 30.2543 91.5998 30.5841L95.7356 37.6095H93.2837ZM85.3597 22.3468V28.7782H89.6683C90.7083 28.7782 91.5589 28.4816 92.2189 27.8881C92.8793 27.2777 93.2095 26.5025 93.2095 25.5627C93.2095 24.6224 92.8793 23.8558 92.2189 23.2622C91.5589 22.6518 90.7083 22.3468 89.6683 22.3468H85.3597Z" fill="#F85C3A"/>
<path d="M104.913 20.2938C107.455 20.2938 109.551 21.1101 111.202 22.7428C112.87 24.3752 113.703 26.4448 113.703 28.9518C113.703 31.4583 112.87 33.5279 111.202 35.1602C109.551 36.7931 107.455 37.6095 104.913 37.6095H99.1426V20.2938H104.913ZM104.838 35.5811C106.786 35.5811 108.38 34.9543 109.618 33.701C110.856 32.4478 111.475 30.8647 111.475 28.9518C111.475 27.6816 111.194 26.5438 110.633 25.5379C110.071 24.5319 109.287 23.7488 108.28 23.1881C107.273 22.611 106.126 22.3224 104.838 22.3224H101.297V35.5811H104.838Z" fill="#F85C3A"/>
<path d="M122.453 37.8319C120.538 37.8319 118.995 37.3289 117.823 36.3229C116.65 35.3169 116.064 33.9647 116.064 32.2662H118.268C118.268 33.3214 118.656 34.1627 119.432 34.7896C120.208 35.3995 121.207 35.7045 122.429 35.7045C123.155 35.7045 123.807 35.5891 124.385 35.3582C124.979 35.111 125.45 34.7562 125.796 34.2946C126.16 33.8329 126.341 33.305 126.341 32.7115C126.341 32.4314 126.292 32.1756 126.192 31.9448C126.11 31.697 126.003 31.4911 125.871 31.3264C125.755 31.1612 125.573 31.0045 125.326 30.8562C125.078 30.6916 124.864 30.5677 124.682 30.4851C124.501 30.3861 124.22 30.2791 123.84 30.1637C123.477 30.0483 123.188 29.9657 122.973 29.9164C122.775 29.8667 122.461 29.7926 122.032 29.6936C121.521 29.5617 121.124 29.4627 120.844 29.397C120.579 29.3309 120.216 29.2234 119.754 29.0751C119.292 28.9105 118.929 28.7617 118.664 28.6299C118.417 28.4816 118.119 28.2836 117.773 28.0363C117.443 27.7891 117.187 27.5249 117.005 27.2448C116.84 26.9642 116.692 26.6264 116.56 26.2304C116.444 25.8184 116.386 25.3732 116.386 24.8946C116.386 23.4105 116.915 22.2398 117.971 21.3822C119.044 20.5082 120.48 20.0712 122.28 20.0712C124.079 20.0712 125.491 20.5329 126.515 21.4564C127.555 22.3801 128.075 23.6249 128.075 25.1916H125.92C125.92 24.2518 125.573 23.5095 124.88 22.9652C124.203 22.4209 123.328 22.1488 122.255 22.1488C121.166 22.1488 120.274 22.3881 119.581 22.8662C118.904 23.3448 118.565 23.9876 118.565 24.796C118.565 25.0597 118.607 25.307 118.689 25.5378C118.772 25.7523 118.871 25.9418 118.987 26.107C119.119 26.2717 119.3 26.4284 119.531 26.5766C119.779 26.7254 119.994 26.8488 120.175 26.9478C120.357 27.0304 120.621 27.1294 120.967 27.2448C121.33 27.3438 121.62 27.4179 121.834 27.4672C122.049 27.5169 122.362 27.5995 122.775 27.7149C123.188 27.8135 123.493 27.8881 123.691 27.9373C123.906 27.9866 124.203 28.0692 124.583 28.1846C124.979 28.3 125.284 28.4075 125.499 28.5065C125.714 28.5886 125.978 28.7125 126.292 28.8771C126.622 29.0259 126.878 29.1826 127.059 29.3473C127.241 29.5125 127.439 29.71 127.654 29.9408C127.885 30.1717 128.05 30.4194 128.149 30.6831C128.264 30.9468 128.363 31.2523 128.446 31.5985C128.529 31.9448 128.57 32.3075 128.57 32.6866C128.57 34.2866 127.992 35.5478 126.836 36.4712C125.697 37.3786 124.236 37.8319 122.453 37.8319Z" fill="#F85C3A"/>
<path d="M16.4824 0.00990207C13.63 0.00656874 10.8056 0.582887 8.1738 1.70522C5.54208 2.82756 3.15575 4.47348 1.15406 6.54692C4.39894 4.01368 8.27884 2.74358 12.7938 2.73667C15.545 2.7104 18.2687 3.29592 20.7755 4.45259C23.1856 5.56184 25.3042 7.23697 26.9587 9.3411C28.6441 11.4856 29.8228 13.9974 30.4034 16.6815H24.3066C23.5182 14.2935 21.9877 12.2332 19.9475 10.8133C17.8438 9.38348 15.3615 8.64532 12.8345 8.69826C11.1343 8.64662 9.44244 8.95846 7.86744 9.61378C6.29245 10.269 4.86925 11.2533 3.68931 12.5033C1.25059 15.033 0.03125 18.2523 0.03125 22.1611C0.03125 26.0696 1.23873 29.2855 3.65375 31.8084C4.83892 33.0497 6.26366 34.0263 7.83781 34.6771C9.41196 35.3273 11.1013 35.6373 12.7989 35.5875C15.4091 35.6442 17.9683 34.8447 20.0998 33.3064C22.1717 31.7786 23.6858 29.5895 24.4032 27.086H30.5406C29.7362 31.2303 27.523 34.9522 24.2914 37.594C21.0275 40.2368 16.9597 41.6308 12.7938 41.5338C9.11203 41.6129 5.48794 40.591 2.36837 38.5945C4.99576 40.9194 8.13589 42.5611 11.5203 43.3786C14.9048 44.1965 18.4331 44.1656 21.8033 43.2895C25.1737 42.4129 28.2859 40.7169 30.874 38.3462C33.4622 35.9756 35.4493 33.0005 36.6654 29.6761C37.8816 26.3512 38.2908 22.7751 37.8579 19.2541C37.4249 15.733 36.1629 12.3711 34.1795 9.45587C32.1961 6.54065 29.5505 4.15876 26.4686 2.51378C23.3868 0.868858 19.9604 0.00975282 16.4824 0.00990207Z" fill="white"/>
</svg>
