<svg width="132" height="44" viewBox="0 0 132 44" fill="none" xmlns="http://www.w3.org/2000/svg">
<path d="M50.3994 10.3837H54.8808C54.8728 11.7134 54.4684 12.8108 53.6674 13.6758C52.8665 14.5329 51.8372 14.9614 50.5795 14.9614C49.3383 14.9614 48.301 14.5489 47.4677 13.7239C46.6429 12.8908 46.2305 11.8455 46.2305 10.588C46.2305 9.32244 46.6389 8.27314 47.4558 7.4401C48.2727 6.60707 49.302 6.19055 50.5437 6.19055C51.5929 6.19055 52.5098 6.49095 53.2948 7.09169C54.0798 7.68438 54.5684 8.45334 54.7604 9.39851H52.8864C52.766 9.09413 52.5938 8.83384 52.3695 8.61757C52.1456 8.39329 51.877 8.22105 51.5645 8.1009C51.2606 7.98075 50.9322 7.9207 50.5795 7.9207C49.8348 7.9207 49.2298 8.16901 48.7657 8.66563C48.301 9.16224 48.0687 9.80304 48.0687 10.588C48.0687 11.1006 48.1727 11.5572 48.3811 11.9577C48.5891 12.3582 48.8816 12.6706 49.2582 12.8948C49.6422 13.1191 50.083 13.2312 50.5795 13.2312C50.9402 13.2312 51.2805 13.1712 51.6008 13.051C51.9212 12.9309 52.1934 12.7627 52.4177 12.5464C52.65 12.3221 52.8182 12.0698 52.9222 11.7895H50.3994V10.3837Z" fill="#2D2D2D"/>
<path d="M56.1172 14.7811V5.9502H57.8713V14.7811H56.1172Z" fill="#2D2D2D"/>
<path d="M62.643 14.9614C61.9784 14.9614 61.3774 14.8132 60.8411 14.5168C60.3044 14.2205 59.884 13.812 59.5795 13.2913C59.283 12.7627 59.1348 12.1779 59.1348 11.5371C59.1348 10.5519 59.4671 9.7349 60.1322 9.0861C60.7969 8.43729 61.6336 8.11292 62.643 8.11292C63.6445 8.11292 64.4773 8.43729 65.1419 9.0861C65.8066 9.7349 66.1394 10.5519 66.1394 11.5371C66.1394 12.5144 65.8026 13.3314 65.13 13.9882C64.4653 14.6369 63.636 14.9614 62.643 14.9614ZM62.643 13.3154C63.1475 13.3154 63.5599 13.1511 63.8803 12.8227C64.2007 12.4863 64.3609 12.0578 64.3609 11.5371C64.3609 11.0165 64.2007 10.592 63.8803 10.2636C63.5599 9.92714 63.1435 9.75893 62.6311 9.75893C62.1267 9.75893 61.7137 9.92714 61.3934 10.2636C61.073 10.592 60.9128 11.0165 60.9128 11.5371C60.9128 11.7935 60.9531 12.0338 61.0332 12.258C61.1212 12.4823 61.2416 12.6705 61.3934 12.8227C61.5456 12.9749 61.7262 13.0951 61.9341 13.1832C62.1505 13.2713 62.3868 13.3154 62.643 13.3154Z" fill="#2D2D2D"/>
<path d="M70.9365 8.11288C71.9215 8.11288 72.7349 8.43726 73.3756 9.08607C74.0244 9.73487 74.3487 10.5519 74.3487 11.5371C74.3487 12.5223 74.0244 13.3393 73.3756 13.9882C72.7349 14.6369 71.9215 14.9613 70.9365 14.9613C70.1594 14.9613 69.4828 14.721 68.9062 14.2404L68.7017 14.7811H67.4043V5.9502H69.1584V8.64154C69.6788 8.2891 70.2718 8.11288 70.9365 8.11288ZM69.5311 12.7987C69.8674 13.1351 70.2877 13.3033 70.7922 13.3033C71.3051 13.3033 71.7255 13.1351 72.0538 12.7987C72.3901 12.4622 72.5583 12.0417 72.5583 11.5371C72.5583 11.2007 72.4822 10.8963 72.3304 10.624C72.1861 10.3516 71.9777 10.1394 71.7056 9.98721C71.433 9.83502 71.129 9.7589 70.7922 9.7589C70.4638 9.7589 70.1634 9.83502 69.8912 9.98721C69.6191 10.1394 69.4067 10.3516 69.2545 10.624C69.1022 10.8963 69.0261 11.2007 69.0261 11.5371C69.0261 12.0417 69.1943 12.4622 69.5311 12.7987Z" fill="#2D2D2D"/>
<path d="M80.9042 8.28112H82.214V14.7691H80.832L80.6883 14.1924C80.0953 14.7051 79.3943 14.9614 78.5854 14.9614C77.6083 14.9614 76.7954 14.6369 76.1467 13.9882C75.5059 13.3314 75.1855 12.5103 75.1855 11.5251C75.1855 10.5479 75.5059 9.7349 76.1467 9.0861C76.7954 8.43729 77.6083 8.11292 78.5854 8.11292C79.4107 8.11292 80.1191 8.37724 80.7121 8.9059L80.9042 8.28112ZM77.4561 12.7987C77.7924 13.1351 78.2133 13.3033 78.7177 13.3033C79.2301 13.3033 79.655 13.1351 79.9913 12.7987C80.3276 12.4623 80.4957 12.0377 80.4957 11.5251C80.4957 11.0125 80.3276 10.588 79.9913 10.2516C79.655 9.91515 79.2341 9.74694 78.7296 9.74694C78.3933 9.74694 78.0889 9.82704 77.8168 9.98724C77.5521 10.1394 77.3441 10.3517 77.1919 10.624C77.0397 10.8883 76.9636 11.1887 76.9636 11.5251C76.9636 12.0377 77.1277 12.4623 77.4561 12.7987Z" fill="#2D2D2D"/>
<path d="M83.9004 14.7811V5.9502H85.6545V14.7811H83.9004Z" fill="#2D2D2D"/>
<path d="M94.1906 14.9614C93.3817 14.9614 92.6444 14.7731 91.9798 14.3967C91.3151 14.0122 90.7943 13.4876 90.4182 12.8227C90.0416 12.1499 89.8535 11.405 89.8535 10.588C89.8535 9.33846 90.2659 8.29314 91.0908 7.45214C91.9236 6.6111 92.9568 6.19055 94.1906 6.19055C95.2154 6.19055 96.1005 6.49896 96.8457 7.11573C97.5904 7.73244 98.0631 8.54145 98.263 9.54269H96.4373C96.3248 9.21428 96.1607 8.92995 95.9443 8.68966C95.7283 8.44135 95.4682 8.25309 95.1637 8.12493C94.8672 7.98876 94.5428 7.9207 94.1906 7.9207C93.4777 7.9207 92.8807 8.17702 92.4002 8.68966C91.9275 9.19428 91.6912 9.82707 91.6912 10.588C91.6912 11.3409 91.9275 11.9697 92.4002 12.4743C92.8807 12.979 93.4777 13.2312 94.1906 13.2312C94.7428 13.2312 95.2194 13.0751 95.6199 12.7627C96.0204 12.4503 96.297 12.0258 96.4492 11.4891H98.2874C98.0949 12.5304 97.6223 13.3714 96.8696 14.0122C96.1248 14.645 95.2319 14.9614 94.1906 14.9614Z" fill="#2D2D2D"/>
<path d="M99.4824 14.7811V5.9502H101.237V14.7811H99.4824Z" fill="#2D2D2D"/>
<path d="M108.219 8.28112H109.529V14.7691H108.146L108.003 14.1924C107.41 14.7051 106.709 14.9614 105.9 14.9614C104.923 14.9614 104.11 14.6369 103.461 13.9882C102.82 13.3314 102.5 12.5103 102.5 11.5251C102.5 10.5479 102.82 9.7349 103.461 9.0861C104.11 8.43729 104.923 8.11292 105.9 8.11292C106.725 8.11292 107.434 8.37724 108.027 8.9059L108.219 8.28112ZM104.771 12.7987C105.107 13.1351 105.528 13.3033 106.032 13.3033C106.545 13.3033 106.969 13.1351 107.306 12.7987C107.642 12.4623 107.81 12.0377 107.81 11.5251C107.81 11.0125 107.642 10.588 107.306 10.2516C106.969 9.91515 106.549 9.74694 106.044 9.74694C105.708 9.74694 105.403 9.82704 105.131 9.98724C104.867 10.1394 104.659 10.3517 104.506 10.624C104.354 10.8883 104.278 11.1887 104.278 11.5251C104.278 12.0377 104.442 12.4623 104.771 12.7987Z" fill="#2D2D2D"/>
<path d="M114.531 8.25708H115.108V9.91514H114.351C113.854 9.91514 113.498 10.0313 113.281 10.2635C113.073 10.4958 112.969 10.8763 112.969 11.4049V14.7811H111.215V8.2931H112.344L112.657 9.08608C113.097 8.5334 113.722 8.25708 114.531 8.25708Z" fill="#2D2D2D"/>
<path d="M116.107 7.4281V5.79407H117.862V7.4281H116.107ZM116.107 14.7811V8.29312H117.862V14.7811H116.107Z" fill="#2D2D2D"/>
<path d="M122.716 13.2192H123.509V14.7811H122.272C121.799 14.7811 121.386 14.689 121.034 14.5048C120.689 14.3205 120.425 14.0562 120.241 13.7118C120.057 13.3593 119.965 12.9428 119.965 12.4622V9.69885H118.787V9.32636L121.358 6.599H121.682V8.29308H123.473V9.69885H121.719V12.234C121.719 12.5464 121.803 12.7906 121.971 12.9669C122.147 13.1351 122.395 13.2192 122.716 13.2192Z" fill="#2D2D2D"/>
<path d="M129.187 8.29309H131.062L128.226 14.697C127.826 15.5941 127.417 16.2229 127.001 16.5833C126.585 16.9438 126.02 17.124 125.307 17.124H124.586V15.5381H125.199C125.616 15.5381 125.912 15.4619 126.088 15.3098C126.264 15.1576 126.456 14.8332 126.665 14.3366L126.689 14.2885L123.938 8.29309H125.848L127.578 12.282L129.187 8.29309Z" fill="#2D2D2D"/>
<path d="M54.7566 37.8816C52.1841 37.8816 50.0568 37.0403 48.3748 35.3582C46.7097 33.6761 45.877 31.5408 45.877 28.9517C45.877 26.3622 46.7097 24.2268 48.3748 22.5447C50.0568 20.8627 52.1841 20.0216 54.7566 20.0216C56.0759 20.0216 57.2963 20.2772 58.4176 20.7885C59.5554 21.2832 60.512 21.9925 61.2866 22.9159C62.0786 23.8393 62.6308 24.9194 62.9443 26.1562H60.7429C60.2807 24.903 59.5225 23.9219 58.4669 23.2124C57.4117 22.5034 56.1749 22.1487 54.7566 22.1487C52.8109 22.1487 51.2115 22.792 49.9583 24.0786C48.7216 25.3482 48.1032 26.9806 48.1032 28.9761C48.1032 30.9552 48.7216 32.5796 49.9583 33.8492C51.2115 35.1189 52.8109 35.7542 54.7566 35.7542C56.2078 35.7542 57.4694 35.383 58.5415 34.6408C59.6131 33.8821 60.3718 32.8353 60.817 31.4995H63.0433C62.5483 33.4617 61.5508 35.0204 60.0499 36.1746C58.5659 37.3124 56.8018 37.8816 54.7566 37.8816Z" fill="white"/>
<path d="M77.9538 37.6095L76.2226 33.4538H67.9116L66.2047 37.6095H63.9043L70.9786 20.2938H73.0068L80.304 37.6095H77.9538ZM72.0422 23.2871L68.7279 31.4747H75.4062L72.0422 23.2871Z" fill="white"/>
<path d="M93.1726 37.6095L89.2151 30.8314H85.2576V37.6095H83.1055V20.2938H89.6604C91.2931 20.2938 92.6368 20.7968 93.6925 21.8025C94.7641 22.7921 95.2999 24.0538 95.2999 25.5876C95.2999 26.7911 94.9536 27.8468 94.2611 28.7538C93.5686 29.6443 92.6453 30.2543 91.4906 30.5841L95.6218 37.6095H93.1726ZM85.2576 22.3468V28.7781H89.5614C90.6001 28.7781 91.4498 28.4816 92.109 27.8881C92.7687 27.2777 93.0985 26.5025 93.0985 25.5627C93.0985 24.6224 92.7687 23.8558 92.109 23.2622C91.4498 22.6518 90.6001 22.3468 89.5614 22.3468H85.2576Z" fill="white"/>
<path d="M104.787 20.2938C107.326 20.2938 109.42 21.1101 111.07 22.7428C112.735 24.3752 113.567 26.4448 113.567 28.9518C113.567 31.4582 112.735 33.5279 111.07 35.1602C109.42 36.7931 107.326 37.6095 104.787 37.6095H99.0234V20.2938H104.787ZM104.713 35.5811C106.658 35.5811 108.25 34.9543 109.487 33.701C110.723 32.4478 111.342 30.8647 111.342 28.9518C111.342 27.6816 111.061 26.5438 110.5 25.5379C109.94 24.5319 109.157 23.7488 108.151 23.1881C107.145 22.611 105.999 22.3224 104.713 22.3224H101.176V35.5811H104.713Z" fill="white"/>
<path d="M122.309 37.8319C120.396 37.8319 118.854 37.3289 117.684 36.3229C116.513 35.3169 115.928 33.9647 115.928 32.2662H118.129C118.129 33.3214 118.517 34.1627 119.292 34.7896C120.067 35.3995 121.064 35.7045 122.285 35.7045C123.01 35.7045 123.662 35.5891 124.239 35.3582C124.832 35.111 125.302 34.7562 125.649 34.2946C126.011 33.8329 126.193 33.305 126.193 32.7115C126.193 32.4314 126.143 32.1756 126.044 31.9448C125.962 31.697 125.855 31.4911 125.723 31.3264C125.607 31.1612 125.426 31.0045 125.179 30.8562C124.931 30.6916 124.717 30.5677 124.535 30.4851C124.354 30.3861 124.074 30.2791 123.695 30.1637C123.332 30.0483 123.043 29.9657 122.829 29.9164C122.631 29.8667 122.317 29.7926 121.889 29.6936C121.378 29.5617 120.982 29.4627 120.702 29.397C120.437 29.3309 120.075 29.2234 119.613 29.0751C119.151 28.9105 118.789 28.7617 118.525 28.6299C118.277 28.4816 117.98 28.2836 117.634 28.0363C117.304 27.7891 117.049 27.5249 116.867 27.2448C116.703 26.9642 116.554 26.6264 116.422 26.2304C116.307 25.8184 116.249 25.3732 116.249 24.8946C116.249 23.4105 116.777 22.2398 117.832 21.3822C118.904 20.5082 120.338 20.0712 122.136 20.0712C123.933 20.0712 125.343 20.5329 126.366 21.4564C127.405 22.3801 127.924 23.6249 127.924 25.1916H125.772C125.772 24.2518 125.426 23.5095 124.733 22.9652C124.057 22.4209 123.183 22.1488 122.112 22.1488C121.023 22.1488 120.133 22.3881 119.44 22.8662C118.764 23.3448 118.426 23.9876 118.426 24.796C118.426 25.0597 118.467 25.307 118.549 25.5378C118.632 25.7523 118.731 25.9418 118.846 26.107C118.978 26.2717 119.159 26.4284 119.39 26.5766C119.638 26.7254 119.852 26.8488 120.034 26.9478C120.215 27.0304 120.479 27.1294 120.825 27.2448C121.188 27.3438 121.477 27.4179 121.691 27.4672C121.905 27.5169 122.218 27.5995 122.631 27.7149C123.043 27.8135 123.348 27.8881 123.546 27.9373C123.76 27.9866 124.057 28.0692 124.436 28.1846C124.832 28.3 125.137 28.4075 125.352 28.5065C125.566 28.5886 125.83 28.7125 126.143 28.8771C126.473 29.0259 126.729 29.1826 126.91 29.3473C127.091 29.5125 127.289 29.71 127.504 29.9408C127.735 30.1717 127.899 30.4194 127.998 30.6831C128.114 30.9468 128.213 31.2523 128.295 31.5985C128.378 31.9448 128.419 32.3075 128.419 32.6866C128.419 34.2866 127.842 35.5478 126.687 36.4712C125.55 37.3786 124.09 37.8319 122.309 37.8319Z" fill="white"/>
<path d="M16.4578 0.00990207C13.6086 0.00656874 10.7874 0.582887 8.15867 1.70522C5.52994 2.82756 3.14633 4.47348 1.14693 6.54692C4.38811 4.01368 8.26359 2.74358 12.7734 2.73667C15.5215 2.7104 18.242 3.29592 20.746 4.45259C23.1533 5.56184 25.2696 7.23697 26.9222 9.3411C28.6057 11.4856 29.783 13.9974 30.3629 16.6815H24.2731C23.4856 14.2935 21.9569 12.2332 19.9189 10.8133C17.8177 9.38348 15.3382 8.64532 12.8141 8.69826C11.1158 8.64662 9.42587 8.95846 7.85266 9.61378C6.27946 10.269 4.85789 11.2533 3.67929 12.5033C1.24334 15.033 0.0253906 18.2523 0.0253906 22.1611C0.0253906 26.0696 1.2315 29.2855 3.64377 31.8084C4.82759 33.0497 6.2507 34.0263 7.82306 34.6771C9.39542 35.3273 11.0828 35.6373 12.7785 35.5875C15.3858 35.6442 17.942 34.8447 20.0711 33.3064C22.1406 31.7786 23.653 29.5895 24.3695 27.086H30.5C29.6965 31.2303 27.4858 34.9522 24.2579 37.594C20.9978 40.2368 16.9345 41.6308 12.7734 41.5338C9.09583 41.6129 5.47586 40.591 2.35985 38.5945C4.98425 40.9194 8.12081 42.5611 11.5014 43.3786C14.882 44.1965 18.4063 44.1656 21.7727 43.2895C25.1392 42.4129 28.2479 40.7169 30.833 38.3462C33.4183 35.9756 35.4031 33.0005 36.6178 29.6761C37.8327 26.3512 38.2413 22.7751 37.8089 19.2541C37.3765 15.733 36.1159 12.3711 34.1348 9.45587C32.1536 6.54065 29.511 4.15876 26.4327 2.51378C23.3544 0.868858 19.9319 0.00975282 16.4578 0.00990207Z" fill="#2D2D2D"/>
</svg>
