<svg width="1440" height="735" viewBox="0 0 1440 735" fill="none" xmlns="http://www.w3.org/2000/svg">
<mask id="mask0_4387_2180" style="mask-type:alpha" maskUnits="userSpaceOnUse" x="0" y="0" width="1440" height="735">
<path d="M0 0H1440V735H720H0V0Z" fill="#F85C3A"/>
</mask>
<g mask="url(#mask0_4387_2180)">
<path d="M1734.65 368.311C1737.52 367.13 1739.81 364.89 1741.06 362.058L1873.11 62.3367C1878.63 49.8026 1897.47 54.8164 1896.02 68.4371L1807.12 909.017C1806.19 917.809 1796.4 922.611 1788.88 917.962L1254.07 587.313C1245.75 582.165 1246.76 569.75 1255.81 566.014L1734.65 368.311Z" fill="white" fill-opacity="0.15"/>
<path d="M1407.93 705.053C1417.11 710.684 1414.8 724.623 1404.29 726.989L1151.07 783.994C1141.24 786.208 1133.22 776.044 1137.66 766.997L1217.8 603.83C1220.92 597.484 1228.82 595.194 1234.85 598.891L1407.93 705.053Z" fill="white" fill-opacity="0.15"/>
<path d="M1583.96 162.918L1786.74 -133.48C1794.07 -144.198 1810.83 -137.254 1808.44 -124.491L1719.84 347.647C1719.09 351.642 1716.37 354.986 1712.61 356.532L1351.39 505.086C1340.07 509.741 1329.86 496.451 1337.28 486.716L1583.96 162.918Z" fill="white" fill-opacity="0.15"/>
<path d="M1418.59 39.3615C1418.93 36.5452 1420.25 33.9383 1422.32 32.0034L1761.66 -284.661C1771.47 -293.818 1786.62 -282.416 1780.54 -270.452L1562.43 158.728C1562.11 159.37 1561.72 159.981 1561.29 160.553L1401.78 370.415C1394.38 380.148 1378.87 373.879 1380.31 361.738L1418.59 39.3615Z" fill="white" fill-opacity="0.15"/>
<path d="M-295.542 368.311C-298.403 367.13 -300.697 364.89 -301.944 362.057L-433.997 62.3367C-439.52 49.8026 -458.353 54.8164 -456.912 68.4371L-368.008 909.017C-367.078 917.809 -357.283 922.611 -349.764 917.962L185.038 587.313C193.364 582.165 192.355 569.75 183.307 566.014L-295.542 368.311Z" fill="white" fill-opacity="0.15"/>
<path d="M31.1847 705.053C22.0035 710.684 24.3156 724.623 34.8234 726.989L288.041 783.994C297.875 786.208 305.892 776.044 301.448 766.997L221.31 603.83C218.193 597.484 210.292 595.194 204.265 598.891L31.1847 705.053Z" fill="white" fill-opacity="0.15"/>
<path d="M-144.85 162.918L-347.626 -133.48C-354.959 -144.198 -371.72 -137.254 -369.325 -124.491L-280.725 347.647C-279.975 351.642 -277.254 354.986 -273.495 356.532L87.7213 505.086C99.0407 509.741 109.248 496.451 101.831 486.716L-144.85 162.918Z" fill="white" fill-opacity="0.15"/>
<path d="M20.5182 39.3615C20.1837 36.5452 18.8626 33.9383 16.7891 32.0034L-322.544 -284.661C-332.356 -293.818 -347.509 -282.416 -341.429 -270.452L-123.32 158.728C-122.994 159.37 -122.611 159.981 -122.176 160.553L37.3333 370.415C44.7313 380.148 60.2449 373.879 58.8031 361.738L20.5182 39.3615Z" fill="white" fill-opacity="0.15"/>
</g>
</svg>
