<svg width="170" height="54" viewBox="0 0 170 54" fill="none" xmlns="http://www.w3.org/2000/svg">
<rect width="170" height="54" rx="24" fill="#2D2D2D"/>
<path d="M48.7045 27.7632C48.7166 26.8433 48.9669 25.9414 49.4321 25.1413C49.8972 24.3412 50.5621 23.6689 51.3648 23.1871C50.8548 22.4761 50.1821 21.8909 49.4 21.4781C48.6178 21.0653 47.7479 20.8362 46.8592 20.8091C44.9635 20.6148 43.1258 21.9165 42.1598 21.9165C41.1751 21.9165 39.6878 20.8284 38.0862 20.8605C37.0502 20.8932 36.0406 21.1873 35.1557 21.7142C34.2708 22.2411 33.5407 22.9828 33.0367 23.867C30.8535 27.5574 32.482 32.981 34.5734 35.9641C35.6197 37.4248 36.8426 39.0565 38.4428 38.9986C40.0086 38.9352 40.5934 38.0238 42.4835 38.0238C44.3561 38.0238 44.9048 38.9986 46.5374 38.9618C48.2176 38.9352 49.2762 37.4946 50.2859 36.0201C51.0377 34.9793 51.6162 33.8289 52 32.6117C51.0238 32.2086 50.1908 31.5339 49.6048 30.6717C49.0187 29.8095 48.7056 28.798 48.7045 27.7632Z" fill="white"/>
<path d="M45.622 18.8471C46.5381 17.7734 46.9895 16.3934 46.8802 15C45.4806 15.1435 44.1877 15.7966 43.2592 16.8291C42.8052 17.3335 42.4575 17.9203 42.236 18.556C42.0145 19.1917 41.9234 19.8638 41.9681 20.5338C42.6681 20.5408 43.3607 20.3927 43.9936 20.1005C44.6266 19.8084 45.1833 19.3798 45.622 18.8471Z" fill="white"/>
<path d="M60.791 15.5015H62.8608C64.6494 15.5015 65.5195 16.5649 65.5195 18.4941C65.5195 20.4233 64.6406 21.5 62.8608 21.5H60.791V15.5015ZM61.7886 16.3408V20.6606H62.751C63.9375 20.6606 64.4956 19.9443 64.4956 18.5073C64.4956 17.0615 63.9331 16.3408 62.751 16.3408H61.7886ZM68.6748 16.7759C69.8877 16.7759 70.7358 17.5625 70.7358 18.8677V19.4697C70.7358 20.8188 69.8877 21.5791 68.6748 21.5791C67.4443 21.5791 66.605 20.8276 66.605 19.4741V18.8721C66.605 17.6021 67.4575 16.7759 68.6748 16.7759ZM68.6792 17.5625C67.9849 17.5625 67.5894 18.1426 67.5894 18.9204V19.439C67.5894 20.2168 67.9585 20.7925 68.6792 20.7925C69.3911 20.7925 69.7559 20.2212 69.7559 19.439V18.9204C69.7559 18.1426 69.3735 17.5625 68.6792 17.5625ZM77.8989 16.855L76.6772 21.5H75.6841L74.7129 18.0723H74.6865L73.7329 21.5H72.7354L71.4609 16.855H72.5112L73.2583 20.397H73.3022L74.2383 16.855H75.1567L76.1191 20.397H76.1631L76.9233 16.855H77.8989ZM78.8657 21.5V16.855H79.8237V17.6899H79.8721C79.9907 17.3252 80.3291 16.7847 81.2695 16.7847C82.2056 16.7847 82.834 17.3032 82.834 18.3623V21.5H81.8584V18.6479C81.8584 17.9404 81.4893 17.6152 80.9399 17.6152C80.2192 17.6152 79.8413 18.1689 79.8413 18.9204V21.5H78.8657ZM84.3105 21.5V15.1851H85.2861V21.5H84.3105ZM88.6348 16.7759C89.8477 16.7759 90.6958 17.5625 90.6958 18.8677V19.4697C90.6958 20.8188 89.8477 21.5791 88.6348 21.5791C87.4043 21.5791 86.5649 20.8276 86.5649 19.4741V18.8721C86.5649 17.6021 87.4175 16.7759 88.6348 16.7759ZM88.6392 17.5625C87.9448 17.5625 87.5493 18.1426 87.5493 18.9204V19.439C87.5493 20.2168 87.9185 20.7925 88.6392 20.7925C89.3511 20.7925 89.7158 20.2212 89.7158 19.439V18.9204C89.7158 18.1426 89.3335 17.5625 88.6392 17.5625ZM93.2227 21.5703C92.3218 21.5703 91.7021 21.0166 91.7021 20.1509C91.7021 19.3291 92.2734 18.7754 93.3457 18.7754H94.519V18.3403C94.519 17.8086 94.1807 17.5581 93.6445 17.5581C93.1172 17.5581 92.8799 17.7778 92.8052 18.0854H91.8779C91.9351 17.3076 92.5195 16.7847 93.6753 16.7847C94.6685 16.7847 95.4902 17.1978 95.4902 18.3535V21.5H94.563V20.8979H94.519C94.3125 21.2539 93.9082 21.5703 93.2227 21.5703ZM93.5259 20.8145C94.0796 20.8145 94.519 20.4365 94.519 19.9312V19.4302H93.4995C92.9326 19.4302 92.6821 19.7158 92.6821 20.1025C92.6821 20.5859 93.0864 20.8145 93.5259 20.8145ZM98.4961 16.7935C99.1509 16.7935 99.6519 17.0835 99.832 17.5537H99.8804V15.1851H100.856V21.5H99.9067V20.7573H99.8584C99.7178 21.2275 99.1597 21.5615 98.4829 21.5615C97.415 21.5615 96.7207 20.8013 96.7207 19.5752V18.7798C96.7207 17.5537 97.4282 16.7935 98.4961 16.7935ZM98.7686 17.5933C98.1182 17.5933 97.7139 18.0767 97.7139 18.9204V19.4302C97.7139 20.2783 98.1226 20.7617 98.7905 20.7617C99.4497 20.7617 99.8804 20.2827 99.8804 19.4917V18.7886C99.8804 18.0723 99.4102 17.5933 98.7686 17.5933ZM106.213 16.7759C107.426 16.7759 108.274 17.5625 108.274 18.8677V19.4697C108.274 20.8188 107.426 21.5791 106.213 21.5791C104.982 21.5791 104.143 20.8276 104.143 19.4741V18.8721C104.143 17.6021 104.996 16.7759 106.213 16.7759ZM106.217 17.5625C105.523 17.5625 105.127 18.1426 105.127 18.9204V19.439C105.127 20.2168 105.497 20.7925 106.217 20.7925C106.929 20.7925 107.294 20.2212 107.294 19.439V18.9204C107.294 18.1426 106.912 17.5625 106.217 17.5625ZM109.531 21.5V16.855H110.489V17.6899H110.537C110.656 17.3252 110.994 16.7847 111.935 16.7847C112.871 16.7847 113.499 17.3032 113.499 18.3623V21.5H112.523V18.6479C112.523 17.9404 112.154 17.6152 111.605 17.6152C110.884 17.6152 110.506 18.1689 110.506 18.9204V21.5H109.531ZM117.274 16.8857V15.7256H118.228V16.8857H119.269V17.6504H118.228V20.1157C118.228 20.6211 118.417 20.7617 118.939 20.7617C119.071 20.7617 119.247 20.7529 119.322 20.7441V21.4912C119.243 21.5044 118.917 21.5308 118.698 21.5308C117.568 21.5308 117.261 21.1265 117.261 20.1948V17.6504H116.553V16.8857H117.274ZM120.5 21.5V15.1851H121.471V17.6899H121.519C121.62 17.3604 121.998 16.7847 122.93 16.7847C123.835 16.7847 124.481 17.3076 124.481 18.3667V21.5H123.51V18.6523C123.51 17.9448 123.119 17.6152 122.565 17.6152C121.866 17.6152 121.471 18.1646 121.471 18.9204V21.5H120.5ZM127.755 21.5791C126.489 21.5791 125.703 20.8013 125.703 19.4917V18.8633C125.703 17.5449 126.564 16.7759 127.698 16.7759C128.862 16.7759 129.684 17.5845 129.684 18.8633V19.4082H126.669V19.6367C126.669 20.3047 127.065 20.7969 127.75 20.7969C128.26 20.7969 128.612 20.5552 128.678 20.2651H129.631C129.574 20.8013 129.007 21.5791 127.755 21.5791ZM126.669 18.771H128.73V18.7095C128.73 18.0107 128.322 17.5449 127.702 17.5449C127.083 17.5449 126.669 18.0107 126.669 18.7095V18.771Z" fill="white"/>
<path d="M62.2061 37.5H60.1758L64.3066 25.5029H66.5391L70.6611 37.5H68.5518L67.4883 34.1777H63.2783L62.2061 37.5ZM65.4316 27.5771H65.3525L63.7266 32.6484H67.04L65.4316 27.5771ZM76.2644 37.6318C75.0603 37.6318 74.1462 37.0605 73.654 36.208H73.5837V40.585H71.6325V28.21H73.531V29.5723H73.6013C74.1111 28.6846 75.0603 28.0869 76.3083 28.0869C78.3913 28.0869 79.8767 29.6602 79.8767 32.4375V33.2637C79.8767 36.0234 78.4089 37.6318 76.2644 37.6318ZM75.8161 36.0234C77.0554 36.0234 77.8991 35.0303 77.8991 33.1582V32.5078C77.8991 30.7061 77.1081 29.6777 75.781 29.6777C74.4187 29.6777 73.5661 30.7852 73.5661 32.499V33.1582C73.5661 34.916 74.4275 36.0234 75.8161 36.0234ZM86.183 37.6318C84.9789 37.6318 84.0649 37.0605 83.5727 36.208H83.5024V40.585H81.5512V28.21H83.4496V29.5723H83.52C84.0297 28.6846 84.9789 28.0869 86.227 28.0869C88.31 28.0869 89.7954 29.6602 89.7954 32.4375V33.2637C89.7954 36.0234 88.3276 37.6318 86.183 37.6318ZM85.7348 36.0234C86.9741 36.0234 87.8178 35.0303 87.8178 33.1582V32.5078C87.8178 30.7061 87.0268 29.6777 85.6996 29.6777C84.3373 29.6777 83.4848 30.7852 83.4848 32.499V33.1582C83.4848 34.916 84.3461 36.0234 85.7348 36.0234ZM93.8387 34.1689H95.7899C95.8778 35.2061 96.7919 36.0938 98.4882 36.0938C100.044 36.0938 100.967 35.3643 100.967 34.2305C100.967 33.3164 100.351 32.8242 99.0682 32.5166L97.0995 32.0244C95.5526 31.6641 94.1639 30.7412 94.1639 28.79C94.1639 26.4961 96.1679 25.2393 98.497 25.2393C100.826 25.2393 102.768 26.4961 102.812 28.7373H100.896C100.808 27.7178 100.026 26.874 98.4706 26.874C97.0995 26.874 96.1679 27.5244 96.1679 28.6406C96.1679 29.4229 96.7128 29.9854 97.829 30.2402L99.7889 30.7236C101.591 31.1631 102.962 32.0156 102.962 34.0547C102.962 36.4102 101.055 37.7373 98.3387 37.7373C94.9989 37.7373 93.8827 35.7861 93.8387 34.1689ZM105.339 28.21V25.9512H107.255V28.21H109.066V29.7744H107.255V34.7314C107.255 35.7422 107.633 36.0234 108.679 36.0234C108.846 36.0234 109.004 36.0234 109.119 36.0059V37.5C108.961 37.5264 108.591 37.5615 108.196 37.5615C105.937 37.5615 105.313 36.7529 105.313 34.8896V29.7744H104.03V28.21H105.339ZM114.335 28.0518C117.007 28.0518 118.457 29.9326 118.457 32.4639V33.2109C118.457 35.8301 117.016 37.6582 114.335 37.6582C111.655 37.6582 110.196 35.8301 110.196 33.2109V32.4639C110.196 29.9414 111.663 28.0518 114.335 28.0518ZM114.335 29.6162C112.885 29.6162 112.164 30.8027 112.164 32.4902V33.2021C112.164 34.8633 112.876 36.085 114.335 36.085C115.794 36.085 116.497 34.8721 116.497 33.2021V32.4902C116.497 30.7939 115.785 29.6162 114.335 29.6162ZM120.106 37.5V28.21H122.057V29.4316H122.127C122.364 28.8516 123.059 28.0781 124.351 28.0781C124.606 28.0781 124.825 28.0957 125.01 28.1309V29.8535C124.843 29.8096 124.5 29.7832 124.175 29.7832C122.61 29.7832 122.083 30.75 122.083 31.998V37.5H120.106ZM129.743 37.6582C127.256 37.6582 125.674 36.0146 125.674 33.2637V32.3232C125.674 29.7305 127.22 28.0518 129.664 28.0518C132.142 28.0518 133.636 29.792 133.636 32.4111V33.2988H127.598V33.5186C127.598 35.083 128.442 36.1201 129.769 36.1201C130.762 36.1201 131.439 35.6279 131.677 34.8281H133.531C133.25 36.3311 132.037 37.6582 129.743 37.6582ZM127.598 31.9365H131.729V31.9189C131.729 30.6006 130.912 29.5635 129.673 29.5635C128.416 29.5635 127.598 30.6006 127.598 31.9189V31.9365Z" fill="white"/>
</svg>
