<svg width="168" height="54" viewBox="0 0 168 54" fill="none" xmlns="http://www.w3.org/2000/svg">
<rect width="167.55" height="54" rx="24" fill="#2D2D2D"/>
<path d="M52.793 28.298L48.874 30.516L45.359 27.023L48.902 23.502L52.793 25.704C53.0226 25.8339 53.2137 26.0224 53.3466 26.2502C53.4795 26.4781 53.5496 26.7372 53.5496 27.001C53.5496 27.2648 53.4795 27.5239 53.3466 27.7518C53.2137 27.9797 53.0226 28.1682 52.793 28.298ZM32.112 15.924C32.0381 16.1043 32.0001 16.2972 32 16.492V37.509C32 37.726 32.045 37.928 32.124 38.109L43.279 27.022L32.112 15.924ZM44.319 25.989L47.577 22.751L34.225 15.195C33.9387 15.0309 33.6055 14.9678 33.279 15.016L44.319 25.989ZM44.319 28.056L33.319 38.989C33.617 39.025 33.931 38.973 34.225 38.806L47.549 31.266L44.319 28.056Z" fill="white"/>
<path d="M69.1608 18.71C69.1608 19.71 68.8641 20.5067 68.2708 21.1C67.6041 21.8067 66.7274 22.16 65.6408 22.16C64.6008 22.16 63.7208 21.8 63.0008 21.08C62.2808 20.36 61.9208 19.4733 61.9208 18.42C61.9208 17.3667 62.2808 16.48 63.0008 15.76C63.7208 15.04 64.6008 14.68 65.6408 14.68C66.1674 14.68 66.6641 14.7733 67.1308 14.96C67.5974 15.1467 67.9808 15.41 68.2808 15.75L67.6208 16.41C67.4008 16.1433 67.1141 15.9367 66.7608 15.79C66.4141 15.6367 66.0408 15.56 65.6408 15.56C64.8608 15.56 64.2008 15.83 63.6608 16.37C63.1274 16.9167 62.8608 17.6 62.8608 18.42C62.8608 19.24 63.1274 19.9233 63.6608 20.47C64.2008 21.01 64.8608 21.28 65.6408 21.28C66.3541 21.28 66.9474 21.08 67.4208 20.68C67.8941 20.28 68.1674 19.73 68.2408 19.03H65.6408V18.17H69.1108C69.1441 18.3567 69.1608 18.5367 69.1608 18.71ZM74.4586 14.84V15.72H71.1986V17.99H74.1386V18.85H71.1986V21.12H74.4586V22H70.2786V14.84H74.4586ZM78.1385 15.72V22H77.2185V15.72H75.2185V14.84H80.1385V15.72H78.1385ZM84.2162 22H83.2962V14.84H84.2162V22ZM88.0995 15.72V22H87.1795V15.72H85.1795V14.84H90.0995V15.72H88.0995ZM100.072 18.42C100.072 19.48 99.7185 20.3667 99.0118 21.08C98.2985 21.8 97.4251 22.16 96.3918 22.16C95.3518 22.16 94.4785 21.8 93.7718 21.08C93.0651 20.3667 92.7118 19.48 92.7118 18.42C92.7118 17.36 93.0651 16.4733 93.7718 15.76C94.4785 15.04 95.3518 14.68 96.3918 14.68C97.4318 14.68 98.3051 15.0433 99.0118 15.77C99.7185 16.4833 100.072 17.3667 100.072 18.42ZM93.6518 18.42C93.6518 19.2467 93.9118 19.93 94.4318 20.47C94.9585 21.01 95.6118 21.28 96.3918 21.28C97.1718 21.28 97.8218 21.01 98.3418 20.47C98.8685 19.9367 99.1318 19.2533 99.1318 18.42C99.1318 17.5867 98.8685 16.9033 98.3418 16.37C97.8218 15.83 97.1718 15.56 96.3918 15.56C95.6118 15.56 94.9585 15.83 94.4318 16.37C93.9118 16.91 93.6518 17.5933 93.6518 18.42ZM102.078 22H101.158V14.84H102.278L105.758 20.41H105.798L105.758 19.03V14.84H106.678V22H105.717L102.078 16.16H102.038L102.078 17.54V22Z" fill="white"/>
<path d="M119.069 38.4097H120.698V27.3981H119.069V38.4097ZM133.74 31.3646L131.872 36.1388H131.817L129.879 31.3646H128.124L131.03 38.0371L129.374 41.749H131.072L135.551 31.3646H133.74ZM124.503 37.1588C123.968 37.1588 123.225 36.8902 123.225 36.2234C123.225 35.3742 124.151 35.0483 124.951 35.0483C125.667 35.0483 126.005 35.2042 126.44 35.4165C126.313 36.4365 125.443 37.1588 124.503 37.1588ZM124.699 31.1241C123.52 31.1241 122.298 31.6482 121.793 32.8101L123.239 33.4188C123.548 32.8101 124.123 32.611 124.727 32.611C125.569 32.611 126.426 33.121 126.44 34.0283V34.1411C126.145 33.971 125.513 33.7165 124.741 33.7165C123.183 33.7165 121.596 34.5806 121.596 36.1952C121.596 37.6689 122.874 38.6184 124.305 38.6184C125.401 38.6184 126.005 38.1225 126.384 37.5411H126.44V38.3912H128.012V34.1692C128.012 32.2146 126.566 31.1241 124.699 31.1241ZM114.633 32.7053H112.316V28.9308H114.633C115.851 28.9308 116.542 29.9482 116.542 30.8176C116.542 31.6711 115.851 32.7053 114.633 32.7053ZM114.591 27.3981H110.688V38.4097H112.316V34.2379H114.591C116.396 34.2379 118.171 32.9184 118.171 30.8176C118.171 28.7168 116.396 27.3981 114.591 27.3981ZM93.3091 37.1606C92.1839 37.1606 91.2421 36.2102 91.2421 34.9047C91.2421 33.5852 92.1839 32.6198 93.3091 32.6198C94.4203 32.6198 95.2914 33.5852 95.2914 34.9047C95.2914 36.2102 94.4203 37.1606 93.3091 37.1606ZM95.1797 31.9812H95.1229C94.7572 31.5417 94.0545 31.1444 93.1686 31.1444C91.3119 31.1444 89.6107 32.7898 89.6107 34.9047C89.6107 37.0047 91.3119 38.6369 93.1686 38.6369C94.0545 38.6369 94.7572 38.2396 95.1229 37.7851H95.1797V38.3251C95.1797 39.7582 94.4203 40.5246 93.1965 40.5246C92.1979 40.5246 91.579 39.8005 91.3259 39.1901L89.9057 39.7864C90.3133 40.78 91.3966 42 93.1965 42C95.109 42 96.7264 40.8646 96.7264 38.0978V31.3708H95.1797V31.9812ZM97.8516 38.4097H99.483V27.3973H97.8516V38.4097ZM101.887 34.777C101.845 33.3298 102.998 32.5916 103.827 32.5916C104.475 32.5916 105.023 32.9176 105.206 33.3862L101.887 34.777ZM106.95 33.528C106.641 32.6912 105.698 31.1444 103.772 31.1444C101.859 31.1444 100.27 32.6621 100.27 34.8907C100.27 36.9906 101.845 38.6369 103.954 38.6369C105.656 38.6369 106.641 37.5869 107.048 36.9765L105.783 36.1247C105.361 36.7493 104.784 37.1606 103.954 37.1606C103.125 37.1606 102.534 36.7774 102.154 36.0261L107.118 33.9534L106.95 33.528ZM67.4009 32.2939V33.883H71.1691C71.0565 34.777 70.7615 35.4297 70.312 35.8834C69.7629 36.4374 68.9049 37.0479 67.4009 37.0479C65.0799 37.0479 63.266 35.1602 63.266 32.8189C63.266 30.4767 65.0799 28.5899 67.4009 28.5899C68.6526 28.5899 69.5665 29.0867 70.2413 29.7254L71.3524 28.604C70.4097 27.6959 69.1589 27 67.4009 27C64.2227 27 61.5508 29.6117 61.5508 32.8189C61.5508 36.0261 64.2227 38.6369 67.4009 38.6369C69.1161 38.6369 70.4097 38.0688 71.4223 37.0047C72.4636 35.9547 72.7866 34.4793 72.7866 33.2866C72.7866 32.9176 72.7587 32.5775 72.7019 32.2939H67.4009ZM77.0716 37.1606C75.9465 37.1606 74.9758 36.2243 74.9758 34.8907C74.9758 33.5421 75.9465 32.6198 77.0716 32.6198C78.1959 32.6198 79.1665 33.5421 79.1665 34.8907C79.1665 36.2243 78.1959 37.1606 77.0716 37.1606ZM77.0716 31.1444C75.0177 31.1444 73.3444 32.7194 73.3444 34.8907C73.3444 37.0479 75.0177 38.6369 77.0716 38.6369C79.1246 38.6369 80.798 37.0479 80.798 34.8907C80.798 32.7194 79.1246 31.1444 77.0716 31.1444ZM85.2008 37.1606C84.0757 37.1606 83.105 36.2243 83.105 34.8907C83.105 33.5421 84.0757 32.6198 85.2008 32.6198C86.326 32.6198 87.2958 33.5421 87.2958 34.8907C87.2958 36.2243 86.326 37.1606 85.2008 37.1606ZM85.2008 31.1444C83.1478 31.1444 81.4745 32.7194 81.4745 34.8907C81.4745 37.0479 83.1478 38.6369 85.2008 38.6369C87.2539 38.6369 88.9272 37.0479 88.9272 34.8907C88.9272 32.7194 87.2539 31.1444 85.2008 31.1444Z" fill="white"/>
</svg>
