<svg width="148" height="148" viewBox="0 0 148 148" fill="none" xmlns="http://www.w3.org/2000/svg">
<g clip-path="url(#clip0_409_1395)">
<path d="M148 0.000244141H0V148H148V0.000244141Z" fill="white"/>
<path d="M58.0673 8H53.5156V12.5517H58.0673V8Z" fill="black"/>
<path d="M62.622 8H58.0703V12.5517H62.622V8Z" fill="black"/>
<path d="M67.1728 8H62.6211V12.5517H67.1728V8Z" fill="black"/>
<path d="M76.2744 8H71.7227V12.5517H76.2744V8Z" fill="black"/>
<path d="M89.9306 8H85.3789V12.5517H89.9306V8Z" fill="black"/>
<path d="M94.4814 8H89.9297V12.5517H94.4814V8Z" fill="black"/>
<path d="M99.0361 8H94.4844V12.5517H99.0361V8Z" fill="black"/>
<path d="M53.5166 12.5518H48.9648V17.1035H53.5166V12.5518Z" fill="black"/>
<path d="M62.622 12.5518H58.0703V17.1035H62.622V12.5518Z" fill="black"/>
<path d="M67.1728 12.5518H62.6211V17.1035H67.1728V12.5518Z" fill="black"/>
<path d="M85.3798 12.5518H80.8281V17.1035H85.3798V12.5518Z" fill="black"/>
<path d="M89.9306 12.5518H85.3789V17.1035H89.9306V12.5518Z" fill="black"/>
<path d="M94.4814 12.5518H89.9297V17.1035H94.4814V12.5518Z" fill="black"/>
<path d="M103.587 12.5518H99.0352V17.1035H103.587V12.5518Z" fill="black"/>
<path d="M58.0673 17.1035H53.5156V21.6552H58.0673V17.1035Z" fill="black"/>
<path d="M62.622 17.1035H58.0703V21.6552H62.622V17.1035Z" fill="black"/>
<path d="M67.1728 17.1035H62.6211V21.6552H67.1728V17.1035Z" fill="black"/>
<path d="M76.2744 17.1035H71.7227V21.6552H76.2744V17.1035Z" fill="black"/>
<path d="M80.8291 17.1035H76.2773V21.6552H80.8291V17.1035Z" fill="black"/>
<path d="M89.9306 17.1035H85.3789V21.6552H89.9306V17.1035Z" fill="black"/>
<path d="M94.4814 17.1035H89.9297V21.6552H94.4814V17.1035Z" fill="black"/>
<path d="M99.0361 17.1035H94.4844V21.6552H99.0361V17.1035Z" fill="black"/>
<path d="M103.587 17.1035H99.0352V21.6552H103.587V17.1035Z" fill="black"/>
<path d="M53.5166 21.6553H48.9648V26.207H53.5166V21.6553Z" fill="black"/>
<path d="M58.0673 21.6553H53.5156V26.207H58.0673V21.6553Z" fill="black"/>
<path d="M71.7236 21.6553H67.1719V26.207H71.7236V21.6553Z" fill="black"/>
<path d="M85.3798 21.6553H80.8281V26.207H85.3798V21.6553Z" fill="black"/>
<path d="M94.4814 21.6553H89.9297V26.207H94.4814V21.6553Z" fill="black"/>
<path d="M53.5166 26.2068H48.9648V30.7585H53.5166V26.2068Z" fill="black"/>
<path d="M58.0673 26.2068H53.5156V30.7585H58.0673V26.2068Z" fill="black"/>
<path d="M67.1728 26.2068H62.6211V30.7585H67.1728V26.2068Z" fill="black"/>
<path d="M48.9658 30.7585H44.4141V35.3103H48.9658V30.7585Z" fill="black"/>
<path d="M53.5166 30.7585H48.9648V35.3103H53.5166V30.7585Z" fill="black"/>
<path d="M80.8291 30.7585H76.2773V35.3103H80.8291V30.7585Z" fill="black"/>
<path d="M85.3798 30.7585H80.8281V35.3103H85.3798V30.7585Z" fill="black"/>
<path d="M94.4814 30.7585H89.9297V35.3103H94.4814V30.7585Z" fill="black"/>
<path d="M99.0361 30.7585H94.4844V35.3103H99.0361V30.7585Z" fill="black"/>
<path d="M48.9658 35.3103H44.4141V39.862H48.9658V35.3103Z" fill="black"/>
<path d="M58.0673 35.3103H53.5156V39.862H58.0673V35.3103Z" fill="black"/>
<path d="M67.1728 35.3103H62.6211V39.862H67.1728V35.3103Z" fill="black"/>
<path d="M76.2744 35.3103H71.7227V39.862H76.2744V35.3103Z" fill="black"/>
<path d="M85.3798 35.3103H80.8281V39.862H85.3798V35.3103Z" fill="black"/>
<path d="M94.4814 35.3103H89.9297V39.862H94.4814V35.3103Z" fill="black"/>
<path d="M103.587 35.3103H99.0352V39.862H103.587V35.3103Z" fill="black"/>
<path d="M53.5166 39.8621H48.9648V44.4138H53.5166V39.8621Z" fill="black"/>
<path d="M58.0673 39.8621H53.5156V44.4138H58.0673V39.8621Z" fill="black"/>
<path d="M67.1728 39.8621H62.6211V44.4138H67.1728V39.8621Z" fill="black"/>
<path d="M71.7236 39.8621H67.1719V44.4138H71.7236V39.8621Z" fill="black"/>
<path d="M80.8291 39.8621H76.2773V44.4138H80.8291V39.8621Z" fill="black"/>
<path d="M85.3798 39.8621H80.8281V44.4138H85.3798V39.8621Z" fill="black"/>
<path d="M89.9306 39.8621H85.3789V44.4138H89.9306V39.8621Z" fill="black"/>
<path d="M94.4814 39.8621H89.9297V44.4138H94.4814V39.8621Z" fill="black"/>
<path d="M99.0361 39.8621H94.4844V44.4138H99.0361V39.8621Z" fill="black"/>
<path d="M12.5517 44.4138H8V48.9655H12.5517V44.4138Z" fill="black"/>
<path d="M26.208 44.4138H21.6562V48.9655H26.208V44.4138Z" fill="black"/>
<path d="M35.3095 44.4138H30.7578V48.9655H35.3095V44.4138Z" fill="black"/>
<path d="M39.8603 44.4138H35.3086V48.9655H39.8603V44.4138Z" fill="black"/>
<path d="M48.9658 44.4138H44.4141V48.9655H48.9658V44.4138Z" fill="black"/>
<path d="M67.1728 44.4138H62.6211V48.9655H67.1728V44.4138Z" fill="black"/>
<path d="M76.2744 44.4138H71.7227V48.9655H76.2744V44.4138Z" fill="black"/>
<path d="M85.3798 44.4138H80.8281V48.9655H85.3798V44.4138Z" fill="black"/>
<path d="M103.587 44.4138H99.0352V48.9655H103.587V44.4138Z" fill="black"/>
<path d="M108.138 44.4138H103.586V48.9655H108.138V44.4138Z" fill="black"/>
<path d="M117.243 44.4138H112.691V48.9655H117.243V44.4138Z" fill="black"/>
<path d="M12.5517 48.9656H8V53.5173H12.5517V48.9656Z" fill="black"/>
<path d="M21.6533 48.9656H17.1016V53.5173H21.6533V48.9656Z" fill="black"/>
<path d="M30.7588 48.9656H26.207V53.5173H30.7588V48.9656Z" fill="black"/>
<path d="M44.415 48.9656H39.8633V53.5173H44.415V48.9656Z" fill="black"/>
<path d="M48.9658 48.9656H44.4141V53.5173H48.9658V48.9656Z" fill="black"/>
<path d="M53.5166 48.9656H48.9648V53.5173H53.5166V48.9656Z" fill="black"/>
<path d="M58.0673 48.9656H53.5156V53.5173H58.0673V48.9656Z" fill="black"/>
<path d="M62.622 48.9656H58.0703V53.5173H62.622V48.9656Z" fill="black"/>
<path d="M71.7236 48.9656H67.1719V53.5173H71.7236V48.9656Z" fill="black"/>
<path d="M80.8291 48.9656H76.2773V53.5173H80.8291V48.9656Z" fill="black"/>
<path d="M85.3798 48.9656H80.8281V53.5173H85.3798V48.9656Z" fill="black"/>
<path d="M89.9306 48.9656H85.3789V53.5173H89.9306V48.9656Z" fill="black"/>
<path d="M94.4814 48.9656H89.9297V53.5173H94.4814V48.9656Z" fill="black"/>
<path d="M103.587 48.9656H99.0352V53.5173H103.587V48.9656Z" fill="black"/>
<path d="M108.138 48.9656H103.586V53.5173H108.138V48.9656Z" fill="black"/>
<path d="M112.688 48.9656H108.137V53.5173H112.688V48.9656Z" fill="black"/>
<path d="M126.345 48.9656H121.793V53.5173H126.345V48.9656Z" fill="black"/>
<path d="M140.001 48.9656H135.449V53.5173H140.001V48.9656Z" fill="black"/>
<path d="M17.1025 53.5173H12.5508V58.0691H17.1025V53.5173Z" fill="black"/>
<path d="M30.7588 53.5173H26.207V58.0691H30.7588V53.5173Z" fill="black"/>
<path d="M35.3095 53.5173H30.7578V58.0691H35.3095V53.5173Z" fill="black"/>
<path d="M39.8603 53.5173H35.3086V58.0691H39.8603V53.5173Z" fill="black"/>
<path d="M44.415 53.5173H39.8633V58.0691H44.415V53.5173Z" fill="black"/>
<path d="M48.9658 53.5173H44.4141V58.0691H48.9658V53.5173Z" fill="black"/>
<path d="M62.622 53.5173H58.0703V58.0691H62.622V53.5173Z" fill="black"/>
<path d="M71.7236 53.5173H67.1719V58.0691H71.7236V53.5173Z" fill="black"/>
<path d="M76.2744 53.5173H71.7227V58.0691H76.2744V53.5173Z" fill="black"/>
<path d="M80.8291 53.5173H76.2773V58.0691H80.8291V53.5173Z" fill="black"/>
<path d="M99.0361 53.5173H94.4844V58.0691H99.0361V53.5173Z" fill="black"/>
<path d="M126.345 53.5173H121.793V58.0691H126.345V53.5173Z" fill="black"/>
<path d="M130.895 53.5173H126.344V58.0691H130.895V53.5173Z" fill="black"/>
<path d="M135.45 53.5173H130.898V58.0691H135.45V53.5173Z" fill="black"/>
<path d="M12.5517 58.0688H8V62.6206H12.5517V58.0688Z" fill="black"/>
<path d="M26.208 58.0688H21.6562V62.6206H26.208V58.0688Z" fill="black"/>
<path d="M30.7588 58.0688H26.207V62.6206H30.7588V58.0688Z" fill="black"/>
<path d="M58.0673 58.0688H53.5156V62.6206H58.0673V58.0688Z" fill="black"/>
<path d="M67.1728 58.0688H62.6211V62.6206H67.1728V58.0688Z" fill="black"/>
<path d="M71.7236 58.0688H67.1719V62.6206H71.7236V58.0688Z" fill="black"/>
<path d="M85.3798 58.0688H80.8281V62.6206H85.3798V58.0688Z" fill="black"/>
<path d="M99.0361 58.0688H94.4844V62.6206H99.0361V58.0688Z" fill="black"/>
<path d="M112.688 58.0688H108.137V62.6206H112.688V58.0688Z" fill="black"/>
<path d="M117.243 58.0688H112.691V62.6206H117.243V58.0688Z" fill="black"/>
<path d="M121.794 58.0688H117.242V62.6206H121.794V58.0688Z" fill="black"/>
<path d="M130.895 58.0688H126.344V62.6206H130.895V58.0688Z" fill="black"/>
<path d="M135.45 58.0688H130.898V62.6206H135.45V58.0688Z" fill="black"/>
<path d="M21.6533 62.6206H17.1016V67.1723H21.6533V62.6206Z" fill="black"/>
<path d="M30.7588 62.6206H26.207V67.1723H30.7588V62.6206Z" fill="black"/>
<path d="M39.8603 62.6206H35.3086V67.1723H39.8603V62.6206Z" fill="black"/>
<path d="M48.9658 62.6206H44.4141V67.1723H48.9658V62.6206Z" fill="black"/>
<path d="M53.5166 62.6206H48.9648V67.1723H53.5166V62.6206Z" fill="black"/>
<path d="M58.0673 62.6206H53.5156V67.1723H58.0673V62.6206Z" fill="black"/>
<path d="M67.1728 62.6206H62.6211V67.1723H67.1728V62.6206Z" fill="black"/>
<path d="M76.2744 62.6206H71.7227V67.1723H76.2744V62.6206Z" fill="black"/>
<path d="M80.8291 62.6206H76.2773V67.1723H80.8291V62.6206Z" fill="black"/>
<path d="M85.3798 62.6206H80.8281V67.1723H85.3798V62.6206Z" fill="black"/>
<path d="M89.9306 62.6206H85.3789V67.1723H89.9306V62.6206Z" fill="black"/>
<path d="M99.0361 62.6206H94.4844V67.1723H99.0361V62.6206Z" fill="black"/>
<path d="M103.587 62.6206H99.0352V67.1723H103.587V62.6206Z" fill="black"/>
<path d="M108.138 62.6206H103.586V67.1723H108.138V62.6206Z" fill="black"/>
<path d="M112.688 62.6206H108.137V67.1723H112.688V62.6206Z" fill="black"/>
<path d="M126.345 62.6206H121.793V67.1723H126.345V62.6206Z" fill="black"/>
<path d="M135.45 62.6206H130.898V67.1723H135.45V62.6206Z" fill="black"/>
<path d="M140.001 62.6206H135.449V67.1723H140.001V62.6206Z" fill="black"/>
<path d="M21.6533 67.1724H17.1016V71.7241H21.6533V67.1724Z" fill="black"/>
<path d="M35.3095 67.1724H30.7578V71.7241H35.3095V67.1724Z" fill="black"/>
<path d="M44.415 67.1724H39.8633V71.7241H44.415V67.1724Z" fill="black"/>
<path d="M48.9658 67.1724H44.4141V71.7241H48.9658V67.1724Z" fill="black"/>
<path d="M53.5166 67.1724H48.9648V71.7241H53.5166V67.1724Z" fill="black"/>
<path d="M58.0673 67.1724H53.5156V71.7241H58.0673V67.1724Z" fill="black"/>
<path d="M62.622 67.1724H58.0703V71.7241H62.622V67.1724Z" fill="black"/>
<path d="M67.1728 67.1724H62.6211V71.7241H67.1728V67.1724Z" fill="black"/>
<path d="M71.7236 67.1724H67.1719V71.7241H71.7236V67.1724Z" fill="black"/>
<path d="M76.2744 67.1724H71.7227V71.7241H76.2744V67.1724Z" fill="black"/>
<path d="M80.8291 67.1724H76.2773V71.7241H80.8291V67.1724Z" fill="black"/>
<path d="M85.3798 67.1724H80.8281V71.7241H85.3798V67.1724Z" fill="black"/>
<path d="M99.0361 67.1724H94.4844V71.7241H99.0361V67.1724Z" fill="black"/>
<path d="M108.138 67.1724H103.586V71.7241H108.138V67.1724Z" fill="black"/>
<path d="M117.243 67.1724H112.691V71.7241H117.243V67.1724Z" fill="black"/>
<path d="M12.5517 71.7241H8V76.2758H12.5517V71.7241Z" fill="black"/>
<path d="M21.6533 71.7241H17.1016V76.2758H21.6533V71.7241Z" fill="black"/>
<path d="M30.7588 71.7241H26.207V76.2758H30.7588V71.7241Z" fill="black"/>
<path d="M35.3095 71.7241H30.7578V76.2758H35.3095V71.7241Z" fill="black"/>
<path d="M39.8603 71.7241H35.3086V76.2758H39.8603V71.7241Z" fill="black"/>
<path d="M67.1728 71.7241H62.6211V76.2758H67.1728V71.7241Z" fill="black"/>
<path d="M71.7236 71.7241H67.1719V76.2758H71.7236V71.7241Z" fill="black"/>
<path d="M76.2744 71.7241H71.7227V76.2758H76.2744V71.7241Z" fill="black"/>
<path d="M89.9306 71.7241H85.3789V76.2758H89.9306V71.7241Z" fill="black"/>
<path d="M94.4814 71.7241H89.9297V76.2758H94.4814V71.7241Z" fill="black"/>
<path d="M103.587 71.7241H99.0352V76.2758H103.587V71.7241Z" fill="black"/>
<path d="M108.138 71.7241H103.586V76.2758H108.138V71.7241Z" fill="black"/>
<path d="M117.243 71.7241H112.691V76.2758H117.243V71.7241Z" fill="black"/>
<path d="M121.794 71.7241H117.242V76.2758H121.794V71.7241Z" fill="black"/>
<path d="M126.345 71.7241H121.793V76.2758H126.345V71.7241Z" fill="black"/>
<path d="M130.895 71.7241H126.344V76.2758H130.895V71.7241Z" fill="black"/>
<path d="M135.45 71.7241H130.898V76.2758H135.45V71.7241Z" fill="black"/>
<path d="M140.001 71.7241H135.449V76.2758H140.001V71.7241Z" fill="black"/>
<path d="M21.6533 76.2759H17.1016V80.8276H21.6533V76.2759Z" fill="black"/>
<path d="M30.7588 76.2759H26.207V80.8276H30.7588V76.2759Z" fill="black"/>
<path d="M35.3095 76.2759H30.7578V80.8276H35.3095V76.2759Z" fill="black"/>
<path d="M53.5166 76.2759H48.9648V80.8276H53.5166V76.2759Z" fill="black"/>
<path d="M58.0673 76.2759H53.5156V80.8276H58.0673V76.2759Z" fill="black"/>
<path d="M62.622 76.2759H58.0703V80.8276H62.622V76.2759Z" fill="black"/>
<path d="M85.3798 76.2759H80.8281V80.8276H85.3798V76.2759Z" fill="black"/>
<path d="M89.9306 76.2759H85.3789V80.8276H89.9306V76.2759Z" fill="black"/>
<path d="M94.4814 76.2759H89.9297V80.8276H94.4814V76.2759Z" fill="black"/>
<path d="M99.0361 76.2759H94.4844V80.8276H99.0361V76.2759Z" fill="black"/>
<path d="M108.138 76.2759H103.586V80.8276H108.138V76.2759Z" fill="black"/>
<path d="M117.243 76.2759H112.691V80.8276H117.243V76.2759Z" fill="black"/>
<path d="M126.345 76.2759H121.793V80.8276H126.345V76.2759Z" fill="black"/>
<path d="M135.45 76.2759H130.898V80.8276H135.45V76.2759Z" fill="black"/>
<path d="M12.5517 80.8276H8V85.3794H12.5517V80.8276Z" fill="black"/>
<path d="M21.6533 80.8276H17.1016V85.3794H21.6533V80.8276Z" fill="black"/>
<path d="M30.7588 80.8276H26.207V85.3794H30.7588V80.8276Z" fill="black"/>
<path d="M35.3095 80.8276H30.7578V85.3794H35.3095V80.8276Z" fill="black"/>
<path d="M39.8603 80.8276H35.3086V85.3794H39.8603V80.8276Z" fill="black"/>
<path d="M44.415 80.8276H39.8633V85.3794H44.415V80.8276Z" fill="black"/>
<path d="M58.0673 80.8276H53.5156V85.3794H58.0673V80.8276Z" fill="black"/>
<path d="M62.622 80.8276H58.0703V85.3794H62.622V80.8276Z" fill="black"/>
<path d="M71.7236 80.8276H67.1719V85.3794H71.7236V80.8276Z" fill="black"/>
<path d="M80.8291 80.8276H76.2773V85.3794H80.8291V80.8276Z" fill="black"/>
<path d="M89.9306 80.8276H85.3789V85.3794H89.9306V80.8276Z" fill="black"/>
<path d="M108.138 80.8276H103.586V85.3794H108.138V80.8276Z" fill="black"/>
<path d="M117.243 80.8276H112.691V85.3794H117.243V80.8276Z" fill="black"/>
<path d="M135.45 80.8276H130.898V85.3794H135.45V80.8276Z" fill="black"/>
<path d="M17.1025 85.3794H12.5508V89.9311H17.1025V85.3794Z" fill="black"/>
<path d="M30.7588 85.3794H26.207V89.9311H30.7588V85.3794Z" fill="black"/>
<path d="M48.9658 85.3794H44.4141V89.9311H48.9658V85.3794Z" fill="black"/>
<path d="M62.622 85.3794H58.0703V89.9311H62.622V85.3794Z" fill="black"/>
<path d="M71.7236 85.3794H67.1719V89.9311H71.7236V85.3794Z" fill="black"/>
<path d="M76.2744 85.3794H71.7227V89.9311H76.2744V85.3794Z" fill="black"/>
<path d="M89.9306 85.3794H85.3789V89.9311H89.9306V85.3794Z" fill="black"/>
<path d="M108.138 85.3794H103.586V89.9311H108.138V85.3794Z" fill="black"/>
<path d="M112.688 85.3794H108.137V89.9311H112.688V85.3794Z" fill="black"/>
<path d="M117.243 85.3794H112.691V89.9311H117.243V85.3794Z" fill="black"/>
<path d="M126.345 85.3794H121.793V89.9311H126.345V85.3794Z" fill="black"/>
<path d="M140.001 85.3794H135.449V89.9311H140.001V85.3794Z" fill="black"/>
<path d="M12.5517 89.9312H8V94.4829H12.5517V89.9312Z" fill="black"/>
<path d="M21.6533 89.9312H17.1016V94.4829H21.6533V89.9312Z" fill="black"/>
<path d="M26.208 89.9312H21.6562V94.4829H26.208V89.9312Z" fill="black"/>
<path d="M39.8603 89.9312H35.3086V94.4829H39.8603V89.9312Z" fill="black"/>
<path d="M44.415 89.9312H39.8633V94.4829H44.415V89.9312Z" fill="black"/>
<path d="M48.9658 89.9312H44.4141V94.4829H48.9658V89.9312Z" fill="black"/>
<path d="M67.1728 89.9312H62.6211V94.4829H67.1728V89.9312Z" fill="black"/>
<path d="M76.2744 89.9312H71.7227V94.4829H76.2744V89.9312Z" fill="black"/>
<path d="M89.9306 89.9312H85.3789V94.4829H89.9306V89.9312Z" fill="black"/>
<path d="M103.587 89.9312H99.0352V94.4829H103.587V89.9312Z" fill="black"/>
<path d="M112.688 89.9312H108.137V94.4829H112.688V89.9312Z" fill="black"/>
<path d="M121.794 89.9312H117.242V94.4829H121.794V89.9312Z" fill="black"/>
<path d="M135.45 89.9312H130.898V94.4829H135.45V89.9312Z" fill="black"/>
<path d="M140.001 89.9312H135.449V94.4829H140.001V89.9312Z" fill="black"/>
<path d="M26.208 94.4827H21.6562V99.0344H26.208V94.4827Z" fill="black"/>
<path d="M35.3095 94.4827H30.7578V99.0344H35.3095V94.4827Z" fill="black"/>
<path d="M44.415 94.4827H39.8633V99.0344H44.415V94.4827Z" fill="black"/>
<path d="M48.9658 94.4827H44.4141V99.0344H48.9658V94.4827Z" fill="black"/>
<path d="M53.5166 94.4827H48.9648V99.0344H53.5166V94.4827Z" fill="black"/>
<path d="M58.0673 94.4827H53.5156V99.0344H58.0673V94.4827Z" fill="black"/>
<path d="M67.1728 94.4827H62.6211V99.0344H67.1728V94.4827Z" fill="black"/>
<path d="M76.2744 94.4827H71.7227V99.0344H76.2744V94.4827Z" fill="black"/>
<path d="M89.9306 94.4827H85.3789V99.0344H89.9306V94.4827Z" fill="black"/>
<path d="M94.4814 94.4827H89.9297V99.0344H94.4814V94.4827Z" fill="black"/>
<path d="M103.587 94.4827H99.0352V99.0344H103.587V94.4827Z" fill="black"/>
<path d="M112.688 94.4827H108.137V99.0344H112.688V94.4827Z" fill="black"/>
<path d="M117.243 94.4827H112.691V99.0344H117.243V94.4827Z" fill="black"/>
<path d="M135.45 94.4827H130.898V99.0344H135.45V94.4827Z" fill="black"/>
<path d="M140.001 94.4827H135.449V99.0344H140.001V94.4827Z" fill="black"/>
<path d="M12.5517 99.0344H8V103.586H12.5517V99.0344Z" fill="black"/>
<path d="M21.6533 99.0344H17.1016V103.586H21.6533V99.0344Z" fill="black"/>
<path d="M30.7588 99.0344H26.207V103.586H30.7588V99.0344Z" fill="black"/>
<path d="M39.8603 99.0344H35.3086V103.586H39.8603V99.0344Z" fill="black"/>
<path d="M44.415 99.0344H39.8633V103.586H44.415V99.0344Z" fill="black"/>
<path d="M58.0673 99.0344H53.5156V103.586H58.0673V99.0344Z" fill="black"/>
<path d="M80.8291 99.0344H76.2773V103.586H80.8291V99.0344Z" fill="black"/>
<path d="M85.3798 99.0344H80.8281V103.586H85.3798V99.0344Z" fill="black"/>
<path d="M103.587 99.0344H99.0352V103.586H103.587V99.0344Z" fill="black"/>
<path d="M108.138 99.0344H103.586V103.586H108.138V99.0344Z" fill="black"/>
<path d="M112.688 99.0344H108.137V103.586H112.688V99.0344Z" fill="black"/>
<path d="M117.243 99.0344H112.691V103.586H117.243V99.0344Z" fill="black"/>
<path d="M121.794 99.0344H117.242V103.586H121.794V99.0344Z" fill="black"/>
<path d="M130.895 99.0344H126.344V103.586H130.895V99.0344Z" fill="black"/>
<path d="M48.9658 103.586H44.4141V108.138H48.9658V103.586Z" fill="black"/>
<path d="M58.0673 103.586H53.5156V108.138H58.0673V103.586Z" fill="black"/>
<path d="M62.622 103.586H58.0703V108.138H62.622V103.586Z" fill="black"/>
<path d="M76.2744 103.586H71.7227V108.138H76.2744V103.586Z" fill="black"/>
<path d="M85.3798 103.586H80.8281V108.138H85.3798V103.586Z" fill="black"/>
<path d="M103.587 103.586H99.0352V108.138H103.587V103.586Z" fill="black"/>
<path d="M121.794 103.586H117.242V108.138H121.794V103.586Z" fill="black"/>
<path d="M130.895 103.586H126.344V108.138H130.895V103.586Z" fill="black"/>
<path d="M135.45 103.586H130.898V108.138H135.45V103.586Z" fill="black"/>
<path d="M140.001 103.586H135.449V108.138H140.001V103.586Z" fill="black"/>
<path d="M53.5166 108.138H48.9648V112.69H53.5166V108.138Z" fill="black"/>
<path d="M58.0673 108.138H53.5156V112.69H58.0673V108.138Z" fill="black"/>
<path d="M85.3798 108.138H80.8281V112.69H85.3798V108.138Z" fill="black"/>
<path d="M89.9306 108.138H85.3789V112.69H89.9306V108.138Z" fill="black"/>
<path d="M103.587 108.138H99.0352V112.69H103.587V108.138Z" fill="black"/>
<path d="M112.688 108.138H108.137V112.69H112.688V108.138Z" fill="black"/>
<path d="M121.794 108.138H117.242V112.69H121.794V108.138Z" fill="black"/>
<path d="M135.45 108.138H130.898V112.69H135.45V108.138Z" fill="black"/>
<path d="M48.9658 112.69H44.4141V117.241H48.9658V112.69Z" fill="black"/>
<path d="M58.0673 112.69H53.5156V117.241H58.0673V112.69Z" fill="black"/>
<path d="M67.1728 112.69H62.6211V117.241H67.1728V112.69Z" fill="black"/>
<path d="M76.2744 112.69H71.7227V117.241H76.2744V112.69Z" fill="black"/>
<path d="M80.8291 112.69H76.2773V117.241H80.8291V112.69Z" fill="black"/>
<path d="M103.587 112.69H99.0352V117.241H103.587V112.69Z" fill="black"/>
<path d="M121.794 112.69H117.242V117.241H121.794V112.69Z" fill="black"/>
<path d="M126.345 112.69H121.793V117.241H126.345V112.69Z" fill="black"/>
<path d="M130.895 112.69H126.344V117.241H130.895V112.69Z" fill="black"/>
<path d="M53.5166 117.241H48.9648V121.793H53.5166V117.241Z" fill="black"/>
<path d="M58.0673 117.241H53.5156V121.793H58.0673V117.241Z" fill="black"/>
<path d="M80.8291 117.241H76.2773V121.793H80.8291V117.241Z" fill="black"/>
<path d="M85.3798 117.241H80.8281V121.793H85.3798V117.241Z" fill="black"/>
<path d="M89.9306 117.241H85.3789V121.793H89.9306V117.241Z" fill="black"/>
<path d="M103.587 117.241H99.0352V121.793H103.587V117.241Z" fill="black"/>
<path d="M108.138 117.241H103.586V121.793H108.138V117.241Z" fill="black"/>
<path d="M112.688 117.241H108.137V121.793H112.688V117.241Z" fill="black"/>
<path d="M117.243 117.241H112.691V121.793H117.243V117.241Z" fill="black"/>
<path d="M121.794 117.241H117.242V121.793H121.794V117.241Z" fill="black"/>
<path d="M140.001 117.241H135.449V121.793H140.001V117.241Z" fill="black"/>
<path d="M48.9658 121.793H44.4141V126.345H48.9658V121.793Z" fill="black"/>
<path d="M53.5166 121.793H48.9648V126.345H53.5166V121.793Z" fill="black"/>
<path d="M62.622 121.793H58.0703V126.345H62.622V121.793Z" fill="black"/>
<path d="M67.1728 121.793H62.6211V126.345H67.1728V121.793Z" fill="black"/>
<path d="M71.7236 121.793H67.1719V126.345H71.7236V121.793Z" fill="black"/>
<path d="M89.9306 121.793H85.3789V126.345H89.9306V121.793Z" fill="black"/>
<path d="M94.4814 121.793H89.9297V126.345H94.4814V121.793Z" fill="black"/>
<path d="M99.0361 121.793H94.4844V126.345H99.0361V121.793Z" fill="black"/>
<path d="M112.688 121.793H108.137V126.345H112.688V121.793Z" fill="black"/>
<path d="M121.794 121.793H117.242V126.345H121.794V121.793Z" fill="black"/>
<path d="M126.345 121.793H121.793V126.345H126.345V121.793Z" fill="black"/>
<path d="M130.895 121.793H126.344V126.345H130.895V121.793Z" fill="black"/>
<path d="M135.45 121.793H130.898V126.345H135.45V121.793Z" fill="black"/>
<path d="M53.5166 126.345H48.9648V130.896H53.5166V126.345Z" fill="black"/>
<path d="M58.0673 126.345H53.5156V130.896H58.0673V126.345Z" fill="black"/>
<path d="M62.622 126.345H58.0703V130.896H62.622V126.345Z" fill="black"/>
<path d="M85.3798 126.345H80.8281V130.896H85.3798V126.345Z" fill="black"/>
<path d="M94.4814 126.345H89.9297V130.896H94.4814V126.345Z" fill="black"/>
<path d="M103.587 126.345H99.0352V130.896H103.587V126.345Z" fill="black"/>
<path d="M108.138 126.345H103.586V130.896H108.138V126.345Z" fill="black"/>
<path d="M121.794 126.345H117.242V130.896H121.794V126.345Z" fill="black"/>
<path d="M126.345 126.345H121.793V130.896H126.345V126.345Z" fill="black"/>
<path d="M130.895 126.345H126.344V130.896H130.895V126.345Z" fill="black"/>
<path d="M140.001 126.345H135.449V130.896H140.001V126.345Z" fill="black"/>
<path d="M53.5166 130.896H48.9648V135.448H53.5166V130.896Z" fill="black"/>
<path d="M58.0673 130.896H53.5156V135.448H58.0673V130.896Z" fill="black"/>
<path d="M62.622 130.896H58.0703V135.448H62.622V130.896Z" fill="black"/>
<path d="M67.1728 130.896H62.6211V135.448H67.1728V130.896Z" fill="black"/>
<path d="M71.7236 130.896H67.1719V135.448H71.7236V130.896Z" fill="black"/>
<path d="M85.3798 130.896H80.8281V135.448H85.3798V130.896Z" fill="black"/>
<path d="M89.9306 130.896H85.3789V135.448H89.9306V130.896Z" fill="black"/>
<path d="M94.4814 130.896H89.9297V135.448H94.4814V130.896Z" fill="black"/>
<path d="M99.0361 130.896H94.4844V135.448H99.0361V130.896Z" fill="black"/>
<path d="M103.587 130.896H99.0352V135.448H103.587V130.896Z" fill="black"/>
<path d="M108.138 130.896H103.586V135.448H108.138V130.896Z" fill="black"/>
<path d="M135.45 130.896H130.898V135.448H135.45V130.896Z" fill="black"/>
<path d="M48.9658 135.448H44.4141V140H48.9658V135.448Z" fill="black"/>
<path d="M58.0673 135.448H53.5156V140H58.0673V135.448Z" fill="black"/>
<path d="M62.622 135.448H58.0703V140H62.622V135.448Z" fill="black"/>
<path d="M67.1728 135.448H62.6211V140H67.1728V135.448Z" fill="black"/>
<path d="M80.8291 135.448H76.2773V140H80.8291V135.448Z" fill="black"/>
<path d="M89.9306 135.448H85.3789V140H89.9306V135.448Z" fill="black"/>
<path d="M94.4814 135.448H89.9297V140H94.4814V135.448Z" fill="black"/>
<path d="M103.587 135.448H99.0352V140H103.587V135.448Z" fill="black"/>
<path d="M112.688 135.448H108.137V140H112.688V135.448Z" fill="black"/>
<path d="M121.794 135.448H117.242V140H121.794V135.448Z" fill="black"/>
<path d="M126.345 135.448H121.793V140H126.345V135.448Z" fill="black"/>
<path d="M135.45 135.448H130.898V140H135.45V135.448Z" fill="black"/>
<path d="M7.99731 29.0994V18.7534C7.99731 12.8242 12.8786 8 18.8753 8H28.9817C34.9781 8 39.8594 12.8242 39.8594 18.7534V39.8621L18.8753 39.8557C12.8786 39.8557 7.99731 35.0318 7.99731 29.0994ZM12.7766 29.0994C12.7766 32.3952 15.5123 35.0767 18.8766 35.0767L35.0801 35.0815V18.7534C35.0801 15.4592 32.3444 12.7793 28.9817 12.7793H18.8753C15.5123 12.7793 12.7766 15.4592 12.7766 18.7534V29.0994Z" fill="black"/>
<path d="M139.999 29.0994V18.7534C139.999 12.8242 135.118 8 129.121 8H119.014C113.018 8 108.137 12.8242 108.137 18.7534V39.8621L129.121 39.8557C135.118 39.8557 139.999 35.0318 139.999 29.0994ZM135.219 29.0994C135.219 32.3952 132.484 35.0767 129.119 35.0767L112.916 35.0815V18.7534C112.916 15.4592 115.652 12.7793 119.014 12.7793H129.121C132.484 12.7793 135.219 15.4592 135.219 18.7534V29.0994Z" fill="black"/>
<path d="M7.99731 118.901V129.247C7.99731 135.176 12.8786 140 18.8753 140H28.9817C34.9781 140 39.8594 135.176 39.8594 129.247V108.138L18.8753 108.144C12.8786 108.144 7.99731 112.968 7.99731 118.901ZM12.7766 118.901C12.7766 115.605 15.5123 112.923 18.8766 112.923L35.0801 112.919V129.247C35.0801 132.541 32.3444 135.221 28.9817 135.221H18.8753C15.5123 135.221 12.7766 132.541 12.7766 129.247V118.901Z" fill="black"/>
<path d="M17.1065 27.0416V20.817C17.1065 18.7699 18.7992 17.1035 20.8795 17.1035H26.9888C29.0689 17.1035 30.7617 18.7699 30.7617 20.817V30.7587L20.8795 30.753C18.7992 30.753 17.1065 29.0888 17.1065 27.0416Z" fill="black"/>
<path d="M130.897 27.0416V20.817C130.897 18.7699 129.205 17.1035 127.124 17.1035H121.015C118.935 17.1035 117.242 18.7699 117.242 20.817V30.7587L127.124 30.753C129.205 30.753 130.897 29.0888 130.897 27.0416Z" fill="black"/>
<path d="M17.1065 120.958V127.183C17.1065 129.23 18.7992 130.896 20.8795 130.896H26.9888C29.0689 130.896 30.7617 129.23 30.7617 127.183V117.241L20.8795 117.247C18.7992 117.247 17.1065 118.911 17.1065 120.958Z" fill="black"/>
</g>
<defs>
<clipPath id="clip0_409_1395">
<rect width="148" height="148" rx="8" fill="white"/>
</clipPath>
</defs>
</svg>
